<?xml version="1.0" encoding="UTF-8"?>
<svg version="1.1" xmlns="http://www.w3.org/2000/svg" width="736" height="736">
<path d="M0 0 C242.88 0 485.76 0 736 0 C736 242.88 736 485.76 736 736 C493.12 736 250.24 736 0 736 C0 493.12 0 250.24 0 0 Z " fill="#176BFE" transform="translate(0,0)"/>
<path d="M0 0 C242.88 0 485.76 0 736 0 C736 242.88 736 485.76 736 736 C493.12 736 250.24 736 0 736 C0 493.12 0 250.24 0 0 Z M134.35130823 95.22572505 C130.44946783 98.17001691 126.22308467 100.55159074 122 103 C120.03905441 104.2040894 118.08037804 105.41189011 116.125 106.625 C105.24091932 113.33366728 94.27620616 119.91323463 83.24609375 126.37890625 C82.28695068 126.94198486 81.32780762 127.50506348 80.33959961 128.08520508 C78.51546624 129.15465443 76.68959814 130.22115341 74.86157227 131.28393555 C73.18391906 132.26760637 71.51880586 133.27309728 69.86934781 134.30334806 C67 136 67 136 63.9099853 137.40702868 C60.29107351 139.27669361 57.76553685 140.991149 55 144 C53.20136377 150.19810853 53.42812785 156.24480463 53.5569458 162.65319824 C53.55171111 164.58228035 53.54120079 166.51135414 53.52587581 168.44038248 C53.49905054 173.73653607 53.54702026 179.02977595 53.60721254 184.32555819 C53.65903569 190.03780749 53.64149768 195.74989254 53.63238525 201.46231079 C53.62609294 211.35765013 53.66374119 221.25204 53.73123932 231.1471405 C53.82876558 245.45362264 53.86001659 259.75964567 53.87509522 274.06642419 C53.90135875 297.27794593 53.98111426 320.48895005 54.09472656 343.70019531 C54.20496254 366.24769463 54.2899544 388.79505858 54.34082031 411.34277344 C54.34239863 412.03795128 54.34397694 412.73312913 54.34560308 413.44937297 C54.3614255 420.43071938 54.37673524 427.41206683 54.39166939 434.39341519 C54.51693439 492.92927978 54.72866357 551.46463435 55 610 C58.24559893 609.25362681 60.59452643 608.19697942 63.4375 606.4375 C64.30890625 605.90253906 65.1803125 605.36757813 66.078125 604.81640625 C67.04234375 604.21699219 68.0065625 603.61757813 69 603 C71.22869237 601.62423137 73.45787221 600.24925215 75.6875 598.875 C77.24017578 597.91207031 77.24017578 597.91207031 78.82421875 596.9296875 C81.57572592 595.25779999 84.35874209 593.65947003 87.15893555 592.07128906 C91.22049551 589.70792543 95.16366853 587.14650055 99.12695312 584.62304688 C100.13338867 583.98786133 100.13338867 583.98786133 101.16015625 583.33984375 C101.75449463 582.96206787 102.34883301 582.58429199 102.96118164 582.19506836 C105.57691751 580.66183556 108.27867907 579.33478324 111 578 C110.98667633 578.86871231 110.98667633 578.86871231 110.9730835 579.75497437 C110.88408473 585.82271379 110.82404945 591.89026559 110.78027344 597.95849609 C110.76024911 600.21833843 110.73302138 602.47812955 110.69824219 604.73779297 C110.64931922 607.99980362 110.62693868 611.26112487 110.609375 614.5234375 C110.58872986 615.52176605 110.56808472 616.5200946 110.54681396 617.54867554 C110.54371088 627.41119881 113.6854695 635.35573176 119.94140625 642.95703125 C126.71987895 649.68405444 135.14536236 653.20701438 144.61372277 653.26394406 C145.46723007 653.25897588 146.32073737 653.2540077 147.20010853 653.24888897 C148.12183053 653.25149625 149.04355254 653.25410354 149.99320552 653.25678983 C153.09261083 653.26310371 156.19181461 653.25511799 159.29121399 653.24723816 C161.53132219 653.24882593 163.77142992 653.25128921 166.0115363 653.25455457 C172.17572583 653.26097966 178.33984988 653.25489096 184.50403512 653.24679029 C190.4661172 653.24089641 196.42819168 653.24438287 202.39027416 653.2476195 C214.58685837 653.25389593 226.78342324 653.2507217 238.98000526 653.24202538 C251.05766288 653.23341558 263.13531181 653.22850511 275.21297264 653.22869301 C276.33923623 653.22870448 276.33923623 653.22870448 277.48825262 653.22871618 C280.53597892 653.22875708 283.58370522 653.22882269 286.63143152 653.22892199 C315.22586501 653.22982824 343.82028525 653.21987991 372.41471414 653.20449232 C397.83873388 653.19086132 423.26274422 653.18463132 448.68676758 653.18530273 C450.31990885 653.18534315 451.95305012 653.18538351 453.58619139 653.18542381 C454.39357339 653.18544416 455.20095538 653.18546452 456.03280349 653.18548548 C460.09675818 653.18558627 464.16071286 653.18567686 468.22466755 653.18575573 C469.02636441 653.18577244 469.82806128 653.18578916 470.65405199 653.18580638 C491.88072599 653.18617119 513.1073988 653.18163686 534.33407182 653.17542917 C535.08869541 653.17520889 535.84331901 653.17498862 536.62080999 653.17476168 C539.65552604 653.17387341 542.69024208 653.17298503 545.72495811 653.17207072 C556.29902616 653.16890655 566.87309328 653.16740092 577.44716177 653.16695923 C591.0673131 653.16636321 604.68745665 653.16239 618.30760465 653.15252777 C624.87976186 653.14785154 631.45191156 653.14486969 638.02407074 653.14612198 C644.02974814 653.14721089 650.03540421 653.14373647 656.04107716 653.13647345 C658.22394214 653.13464878 660.40680931 653.13454072 662.58967439 653.13624074 C665.53617455 653.1382829 668.48260328 653.13428297 671.42909718 653.12863445 C672.29431031 653.13068977 673.15952344 653.13274509 674.05095515 653.13486269 C677.83197446 653.48908017 677.83197446 653.48908017 681 652 C681.0988078 649.52914496 681.13178118 647.08624307 681.12304783 644.61487484 C681.1247786 643.43550343 681.1247786 643.43550343 681.12654433 642.23230633 C681.1292183 639.56369938 681.12468246 636.89515121 681.12025452 634.22654724 C681.12069006 632.30765187 681.12156465 630.38875656 681.12284368 628.46986157 C681.12509198 623.17038158 681.12106282 617.87092159 681.11606562 612.57144415 C681.11176607 606.86656863 681.11320719 601.16169432 681.1139679 595.45681763 C681.11449345 585.56393095 681.11134341 575.67105084 681.10573006 565.77816582 C681.09761926 551.47453465 681.09500027 537.17090668 681.09374207 522.86727346 C681.09155088 499.66322273 681.08489757 476.45917574 681.07543945 453.25512695 C681.06625979 430.70825214 681.05917384 408.16137826 681.05493164 385.61450195 C681.05480011 384.91989748 681.05466859 384.22529301 681.05453308 383.50963991 C681.05321459 376.53433858 681.05193877 369.55903723 681.05069422 362.58373588 C681.04024748 304.05582148 681.02231844 245.52791104 681 187 C665.82 187 650.64 187 635 187 C635.10441406 178.76289063 635.10441406 178.76289063 635.2109375 170.359375 C635.2416316 166.85933189 635.27051722 163.35945709 635.29296875 159.859375 C635.32869662 154.31605126 635.37074435 148.77332783 635.45263672 143.23046875 C635.51831577 138.75648721 635.55380718 134.28315026 635.56926346 129.80872345 C635.58026353 128.11039344 635.6017424 126.41209467 635.63438034 124.71404266 C635.87084243 111.88977447 634.13659402 102.4995071 625.25 92.5625 C618.20428735 86.04623397 610.12448002 82.85620295 600.63884449 82.8378458 C599.87942837 82.83249761 599.12001224 82.82714941 598.33758351 82.82163915 C595.77208264 82.80484882 593.20660447 82.79519437 590.6410675 82.78553772 C588.79117097 82.77508386 586.94127665 82.76423229 585.09138459 82.75301546 C579.99100269 82.72350081 574.89060897 82.70048786 569.79018891 82.67870772 C565.41896565 82.65929115 561.04776422 82.63624978 556.67655823 82.61331386 C515.85596159 82.40033294 475.03481595 82.28659995 434.21378249 82.19694405 C428.1347896 82.18354567 422.05579791 82.16962871 415.97680664 82.15551758 C415.30512462 82.15396984 414.6334426 82.1524221 413.94140658 82.15082746 C392.20610434 82.10040578 370.47135798 82.00194504 348.73636459 81.87730583 C325.73730238 81.74565937 302.73846925 81.66624691 279.73900861 81.64209074 C267.21032704 81.62747389 254.6827014 81.58899249 242.15438271 81.48921394 C231.47489056 81.40416776 220.79657405 81.36716531 210.11674783 81.39146752 C204.67491809 81.40235826 199.23564127 81.39127296 193.79424286 81.3176651 C162.00848378 80.83939787 162.00848378 80.83939787 134.35130823 95.22572505 Z " fill="#FEFEFE" transform="translate(0,0)"/>
<path d="M0 0 C15.18 0 30.36 0 46 0 C46 153.45 46 306.9 46 465 C-89.77094199 465.16151457 -89.77094199 465.16151457 -141.76105237 465.19265985 C-155.35604948 465.20082468 -168.95104645 465.20917637 -182.54604308 465.21810398 C-184.19046105 465.21918334 -185.83487902 465.22025682 -187.479297 465.22132435 C-213.694056 465.23839135 -239.90878049 465.26840617 -266.12351863 465.30518888 C-293.06628229 465.34292444 -320.00902687 465.36754298 -346.95181651 465.37565996 C-350.75740434 465.37681258 -354.56299211 465.37811512 -358.36857986 465.37950897 C-359.49206986 465.37991351 -359.49206986 465.37991351 -360.63825662 465.38032622 C-372.69438542 465.38505286 -384.75045521 465.40360447 -396.80655994 465.42732814 C-408.92738979 465.45088405 -421.04816114 465.45987018 -433.16901307 465.45400551 C-439.73622165 465.45123125 -446.30329081 465.4554176 -452.87047195 465.4768219 C-458.88249463 465.49627391 -464.89422746 465.49727843 -470.90626343 465.48359558 C-473.08139914 465.48190423 -475.25655287 465.48698957 -477.43165307 465.49953273 C-480.38975772 465.51559959 -483.3468179 465.50692491 -486.30490685 465.49219131 C-487.14819194 465.50269937 -487.99147703 465.51320742 -488.86031622 465.5240339 C-498.49269702 465.41571672 -506.97784833 461.53890682 -514 455 C-521.74155601 446.69669843 -523.46892485 437.73974875 -523.64453125 426.6484375 C-523.66400314 425.59016754 -523.68347504 424.53189758 -523.70353699 423.44155884 C-523.73607407 421.21798334 -523.75997222 418.99426619 -523.77563477 416.77050781 C-523.81249321 413.3756254 -523.91861336 409.98705777 -524.02539062 406.59375 C-524.29645942 390.91789335 -524.29645942 390.91789335 -521.05688477 386.12548828 C-518.43805019 384.26069613 -515.99778938 383.14288597 -513 382 C-511.37424558 381.03169245 -509.76540394 380.03435849 -508.17578125 379.0078125 C-506.55697344 378.04302905 -504.93587697 377.08207526 -503.3125 376.125 C-501.70436119 375.16938171 -500.09629037 374.213649 -498.48828125 373.2578125 C-497.66820416 372.78583905 -496.84812707 372.3138656 -496.00319916 371.82758993 C-492.92801225 370.00997488 -492.92801225 370.00997488 -489.88417143 367.75115353 C-479.41706774 360.38716013 -470.58284895 359.73143174 -458.04945374 359.91770935 C-456.06484202 359.91377761 -454.08023494 359.90588441 -452.09565252 359.89440686 C-446.67898202 359.87440259 -441.26393096 359.91011141 -435.84746659 359.95540941 C-429.99287293 359.99444069 -424.1383634 359.98111162 -418.28367615 359.97428894 C-408.15236506 359.96958012 -398.02157745 359.99770835 -387.89039803 360.04842949 C-373.24270475 360.12171437 -358.59518553 360.14505699 -343.94734304 360.15632141 C-320.17967862 360.17519685 -296.41228653 360.2357536 -272.64477539 360.32104492 C-249.56308399 360.40377919 -226.48146787 360.46734281 -203.3996582 360.50561523 C-201.94678297 360.50805101 -200.49390773 360.51048735 -199.04103249 360.51292425 C-187.79145876 360.53169586 -176.54188316 360.54925207 -165.29230702 360.56651533 C-110.19461549 360.65134897 -55.09762203 360.83242942 0 361 C0 241.87 0 122.74 0 0 Z " fill="#0D3D91" transform="translate(634,188)"/>
<path d="M0 0 C0.27455315 59.22930937 0.48608252 118.45860353 0.61278395 177.68841532 C0.62775203 184.67802019 0.64331067 191.66762369 0.65917969 198.65722656 C0.66153335 199.7005525 0.66153335 199.7005525 0.66393456 200.76495572 C0.71507369 223.31107382 0.80521102 245.8568311 0.91556665 268.40273059 C1.03197163 292.22779061 1.10395123 316.05259578 1.12906194 339.87793493 C1.14554316 354.15212273 1.19763028 368.42527471 1.2949976 382.69914371 C1.3583378 392.48191526 1.37762227 402.26414988 1.36201653 412.04711169 C1.35431546 417.69525682 1.36627207 423.34158983 1.4304657 428.98941422 C1.48880274 434.1596454 1.49186225 439.32684414 1.45078674 444.49721402 C1.4457097 446.36819904 1.46099615 448.2393721 1.49859819 450.10998613 C1.76304372 464.07669404 1.76304372 464.07669404 -2.59003973 468.82547665 C-5.65471855 470.91285306 -8.61613496 472.49723694 -12 474 C-13.69292154 474.90661496 -15.38149129 475.82148304 -17.0625 476.75 C-17.949375 477.21921875 -18.83625 477.6884375 -19.75 478.171875 C-25.83031634 481.59205294 -31.66039581 485.42517711 -37.54296875 489.171875 C-41.53341415 491.71237853 -45.56156769 494.17700026 -49.6328125 496.5859375 C-52.5268588 498.31472424 -55.3863319 500.09636682 -58.25 501.875 C-62.80142168 504.68821716 -67.39791869 507.37991117 -72.0625 510 C-77.67938082 513.16003083 -83.03717068 516.62314564 -88.37109375 520.23828125 C-92.73473397 523.16250375 -96.8191334 525.84993694 -102 527 C-102.43487959 467.83902341 -102.76971654 408.67808503 -102.97024126 349.515846 C-102.99394016 342.53139452 -103.01857475 335.54694648 -103.04370117 328.5625 C-103.04618559 327.86747241 -103.04867002 327.17244483 -103.05122972 326.4563558 C-103.13216183 303.93790441 -103.27484923 281.42036028 -103.44964719 258.90245829 C-103.63407196 235.10111544 -103.74794768 211.30047452 -103.7876814 187.49841905 C-103.81375426 173.24198452 -103.89609402 158.98815479 -104.05041287 144.73252216 C-104.15084372 134.95702335 -104.1812045 125.18287109 -104.15652617 115.40689382 C-104.14435245 109.76527867 -104.16300436 104.1282134 -104.26490402 98.48740768 C-104.83129949 65.52541096 -104.83129949 65.52541096 -100.16772294 58.07137775 C-95.88327745 53.74440438 -91.19740451 51.55105873 -85.42647135 49.81687212 C-81.45325545 48.4792881 -78.0855634 46.23057154 -74.5625 44 C-73.17626131 43.18483639 -71.78726612 42.37432682 -70.39453125 41.5703125 C-59.95086175 35.48075094 -49.59078548 29.23958127 -39.3125 22.875 C-33.74719405 19.43320387 -28.1194183 16.10708538 -22.47192383 12.80273438 C-16.80257732 9.48333939 -11.16795746 6.1090525 -5.55712891 2.69165039 C-1.10835251 0 -1.10835251 0 0 0 Z " fill="#679AE7" transform="translate(157,83)"/>
<path d="M0 0 C145.78651685 0 145.78651685 0 171 22 C171.97582031 22.76828125 172.95164062 23.5365625 173.95703125 24.328125 C184.92889797 33.48223888 191.91633629 49.22514101 193.20930481 63.27426147 C193.30990055 65.6129584 193.35540601 67.94435377 193.37109375 70.28515625 C193.38012222 71.14451279 193.3891507 72.00386932 193.39845276 72.88926697 C193.4128673 74.69852264 193.4218199 76.5078294 193.42553711 78.31713867 C193.4373672 81.03202375 193.48658249 83.74458156 193.53710938 86.45898438 C193.71245546 105.33443021 189.12855554 121.8595848 175.6875 135.8125 C169.39070084 141.79791898 162.65987222 147.94897763 154 150 C154.41071724 156.4928278 156.85587753 160.97859839 160.0625 166.5625 C161.15049438 168.50014857 162.23630675 170.43902344 163.3203125 172.37890625 C163.90844727 173.42836426 164.49658203 174.47782227 165.10253906 175.55908203 C167.17471609 179.31683589 169.18477762 183.10321412 171.1796875 186.90234375 C171.53302658 187.57350723 171.88636566 188.24467072 172.25041199 188.93617249 C173.66056659 191.61544812 175.07045051 194.29477424 176.46829224 196.98049927 C177.45026635 198.86547082 178.44111819 200.74554153 179.43359375 202.625 C180.00134521 203.71039063 180.56909668 204.79578125 181.15405273 205.9140625 C185.13586459 212.57060289 188.49064559 215.90179803 196 218 C198.97 218.33 201.94 218.66 205 219 C205 232.53 205 246.06 205 260 C194.16356095 263.33428894 187.67588778 264.65530762 176.9375 264.5625 C175.66583984 264.58634766 174.39417969 264.61019531 173.08398438 264.63476562 C158.46286901 264.61226006 147.0297284 258.88202436 136.6640625 248.70703125 C129.41174854 240.50046546 124.83919105 230.73844652 120 221 C119.29125482 219.59330111 118.58166588 218.18702692 117.87109375 216.78125 C116.21946816 213.50437368 114.58684168 210.21842153 112.95898438 206.9296875 C112.00591624 205.01190478 111.04367926 203.09902324 110.078125 201.1875 C106.13505873 193.37350878 102.28736522 185.51567961 98.5 177.625 C97.83121826 176.24115112 97.83121826 176.24115112 97.14892578 174.8293457 C96.73884277 173.97042725 96.32875977 173.11150879 95.90625 172.2265625 C95.53822266 171.45908691 95.17019531 170.69161133 94.79101562 169.90087891 C94 168 94 168 94 166 C84.76 166 75.52 166 66 166 C66 196.69 66 227.38 66 259 C44.22 259 22.44 259 0 259 C0 173.53 0 88.06 0 0 Z " fill="#FDFEFE" transform="translate(302,187)"/>
<path d="M0 0 C44.26376606 0 44.26376606 0 54.62768555 9.4362793 C61.35058516 17.09686852 61.73652478 25.66816535 61.54199219 35.35913086 C61.4999982 37.5625942 61.5009509 39.76299861 61.5078125 41.96679688 C61.45897154 53.22563049 60.29125602 61.58361244 52.31640625 69.984375 C37.80475135 82.61171721 18.13119887 78 0 78 C0 52.26 0 26.52 0 0 Z " fill="#176BFD" transform="translate(368,232)"/>
<path d="M0 0 C74.20875 -0.0825 148.4175 -0.165 224.875 -0.25 C248.32933105 -0.28641602 271.78366211 -0.32283203 295.94873047 -0.36035156 C324.53149414 -0.37841797 324.53149414 -0.37841797 337.90115356 -0.3817749 C347.26325482 -0.38551001 356.62526095 -0.40020369 365.98733521 -0.42230225 C376.78150379 -0.44774356 387.57558091 -0.45934846 398.36977971 -0.4537798 C403.89281198 -0.45136757 409.41563977 -0.45522234 414.93863463 -0.47686052 C419.93340779 -0.49631046 424.92783165 -0.49730368 429.92262077 -0.48360443 C431.72770573 -0.48190869 433.53281251 -0.48697807 435.33785462 -0.49953032 C449.0618914 -0.58935355 458.55678484 0.84737077 468.80078125 10.625 C471.75741171 13.81795084 474.09311579 17.09088737 476 21 C476.51697952 22.05787971 476.51697952 22.05787971 477.04440308 23.13713074 C478.235897 26.70672294 478.26462132 30.01082532 478.22705078 33.7277832 C478.22734283 34.48929184 478.22763489 35.25080048 478.22793579 36.03538513 C478.22654768 38.54063498 478.21101112 41.04558366 478.1953125 43.55078125 C478.19158052 45.29241269 478.18873442 47.03404624 478.18673706 48.77568054 C478.17911516 53.35089962 478.15947908 57.92599093 478.1373291 62.50115967 C478.11323463 67.99529632 478.10408282 73.48947579 478.09242249 78.98365021 C478.07305383 87.32252223 478.03472125 95.66111411 478 104 C493.18 104 508.36 104 524 104 C524 257.45 524 410.9 524 569 C523.67 569 523.34 569 523 569 C523 415.88 523 262.76 523 105 C507.82 105 492.64 105 477 105 C477 224.13 477 343.26 477 466 C319.59 466 162.18 466 0 466 C0 312.22 0 158.44 0 0 Z M1 2 C0.90852687 60.55019855 0.83799512 119.10039286 0.79573868 177.65064834 C0.79074918 184.55656842 0.78556298 191.46248835 0.78027344 198.3684082 C0.7797504 199.05564356 0.77922737 199.74287893 0.77868848 200.4509396 C0.76163201 222.74082427 0.73157854 245.03066847 0.69481112 267.32052861 C0.65603984 290.86787815 0.63202286 314.41519161 0.62364602 337.96257514 C0.61814626 352.07515185 0.60075022 366.18761242 0.56833413 380.3001534 C0.54725744 389.9659819 0.54078437 399.63175 0.54599449 409.29759983 C0.54856696 414.88171102 0.54451017 420.46561868 0.5231781 426.04969406 C0.50381542 431.15527665 0.50266263 436.26051748 0.51640442 441.36611529 C0.51810458 443.21946069 0.51294359 445.0728268 0.50046727 446.92613099 C0.48456073 449.43346859 0.49297468 451.93955036 0.50780869 454.44686604 C0.4920466 455.54204283 0.4920466 455.54204283 0.4759661 456.6593444 C0.51668048 459.67635314 0.64247142 461.5509796 2.55159575 463.94865024 C5.92519276 465.39727965 9.05956781 465.41102008 12.66665936 465.37473011 C13.44691863 465.37879084 14.22717791 465.38285156 15.03108141 465.38703534 C17.66150019 465.39702908 20.29139138 465.38552665 22.92179871 465.3742218 C24.82037193 465.37696076 26.71894364 465.38101143 28.61751157 465.38626546 C33.84728329 465.39688564 39.07688494 465.38870167 44.30664933 465.37751496 C49.94212164 465.3686954 55.57757116 465.37711007 61.21304321 465.38337708 C72.25933335 465.39288116 83.30555831 465.38625063 94.35184362 465.37411413 C107.21134725 465.36051071 120.07083526 465.36213061 132.93034426 465.36424746 C156.56993952 465.36753639 180.20949315 465.35461134 203.84907713 465.33440243 C225.42616756 465.31604332 247.00322486 465.31021722 268.58032227 465.31567383 C269.96503483 465.31602026 271.34974739 465.31636636 272.73445996 465.31671212 C273.41903581 465.31688311 274.10361166 465.31705411 274.80893223 465.31723029 C278.25504075 465.31808384 281.70114927 465.31890762 285.1472578 465.31969929 C285.82712869 465.31985637 286.50699958 465.32001345 287.20747261 465.32017529 C305.23554784 465.32416698 323.26361893 465.31864193 341.29169255 465.310188 C343.87644629 465.30898069 346.46120002 465.3077747 349.04595375 465.30657005 C350.31776222 465.30596651 351.5895707 465.30536298 352.89991882 465.30474115 C361.86507109 465.30086096 370.8302174 465.30125606 379.7953701 465.3031559 C390.72386506 465.30527815 401.65232816 465.30005174 412.58081415 465.28554235 C418.15752986 465.27829829 423.73419917 465.27422141 429.31091881 465.27878571 C434.41658372 465.28286278 439.52215286 465.27769462 444.62780324 465.26515963 C446.47439732 465.26223233 448.32100043 465.26266374 450.16759219 465.26680271 C452.6798868 465.27192226 455.19186251 465.26470451 457.70413494 465.25447559 C458.41895168 465.25887208 459.13376841 465.26326856 459.87024626 465.26779827 C468.5301448 465.3423682 468.5301448 465.3423682 476 462 C476.10092238 459.70985504 476.12925172 457.41651971 476.13142776 455.12415314 C476.1334804 454.39294148 476.13553303 453.66172983 476.13764787 452.90836024 C476.1433596 450.42688681 476.14185551 447.94546816 476.14044189 445.46398926 C476.14302317 443.67937642 476.14603566 441.89476417 476.1494453 440.11015272 C476.15754694 435.18150168 476.15930662 430.25286517 476.16004276 425.32420826 C476.16188792 420.01793333 476.16943264 414.71166605 476.17617798 409.40539551 C476.18978567 397.78951943 476.1957902 386.17364678 476.20018864 374.55776405 C476.20294774 367.30803478 476.20718455 360.05830686 476.21169281 352.80857849 C476.22389014 332.74720595 476.23418757 312.68583448 476.2375679 292.62445831 C476.23778747 291.33931421 476.23800703 290.05417011 476.23823325 288.73008224 C476.23845153 287.44180205 476.23866981 286.15352186 476.2388947 284.82620287 C476.23933817 282.21551545 476.23978474 279.60482804 476.24023438 276.99414062 C476.2404558 275.69914011 476.24067723 274.40413959 476.24090537 273.06989664 C476.24485228 252.09214589 476.26230096 231.11442991 476.2855939 210.13669258 C476.30930026 188.61326989 476.32176948 167.08986463 476.32293582 145.56642866 C476.32385314 133.47627846 476.32961956 121.38617351 476.34775543 109.29603577 C476.36314697 98.99877715 476.36828258 88.70157774 476.36001733 78.40430981 C476.35610708 73.14960184 476.35705867 67.89501316 476.37107468 62.64031982 C476.38379141 57.82871936 476.38263559 53.01732808 476.37048396 48.20572799 C476.36852307 46.46603797 476.37162349 44.72633323 476.38032833 42.98666388 C476.42003504 34.51399803 476.43751514 26.91986371 473 19 C472.34 19 471.68 19 471 19 C470.67 17.35 470.34 15.7 470 14 C469.01 14 468.02 14 467 14 C466.67 13.01 466.34 12.02 466 11 C464.35 11 462.7 11 461 11 C461 9.35 461 7.7 461 6 C459.02 5.505 459.02 5.505 457 5 C457 4.34 457 3.68 457 3 C453.18943257 1.77230334 449.40660661 1.86240346 445.44875717 1.87695217 C444.68099689 1.87579833 443.91323661 1.87464448 443.12221086 1.87345567 C440.53455702 1.87079654 437.94696467 1.87530543 435.35931396 1.87974548 C433.49145183 1.87930964 431.62358975 1.87843449 429.75572801 1.87715632 C424.61124627 1.87491397 419.46678525 1.87892912 414.32230616 1.88393438 C408.77903906 1.8882424 403.23577318 1.8867922 397.69250488 1.8860321 C388.08450798 1.88550709 378.47651785 1.88865152 368.86852264 1.89426994 C354.97687763 1.90238802 341.0852359 1.90500048 327.19358876 1.90625793 C304.65672642 1.90844797 282.11986798 1.91509816 259.58300781 1.92456055 C237.68717467 1.93374318 215.79134249 1.94082768 193.89550781 1.94506836 C193.22072065 1.94519989 192.54593348 1.94533141 191.85069821 1.94546692 C185.07427993 1.94678543 178.29786165 1.94806125 171.52144335 1.94930578 C114.6809597 1.95974893 57.84048003 1.97739711 1 2 Z " fill="#3B77DE" transform="translate(157,83)"/>
<path d="M0 0 C0.82638376 2.89234315 1 4.88742431 1 8 C-0.19625 7.7525 -1.3925 7.505 -2.625 7.25 C-5.88403076 6.57571777 -7.03579094 7.01767672 -10.09985316 8.53098083 C-13.31330566 10.76048716 -13.31330566 10.76048716 -13.74519098 14.44632745 C-13.7736301 15.85599393 -13.76882837 17.26655929 -13.73828697 18.67618179 C-13.74521004 19.45744907 -13.7521331 20.23871634 -13.75926596 21.04365838 C-13.77522729 23.67799929 -13.74817214 26.31016706 -13.7215271 28.94439697 C-13.72414213 30.84526262 -13.729393 32.74612617 -13.7370621 34.64697814 C-13.75051767 39.88293993 -13.7264252 45.11816934 -13.69639373 50.35403776 C-13.67054677 55.99546551 -13.67924666 61.63685004 -13.68380737 67.27832031 C-13.68695754 77.05666179 -13.66809033 86.83476356 -13.63438034 96.61304474 C-13.58567281 110.75085589 -13.56999726 124.88855081 -13.56245239 139.02643678 C-13.549312 161.96268855 -13.50941043 184.89878409 -13.45263672 207.83496094 C-13.39754133 230.11880834 -13.3550342 252.40262158 -13.32958984 274.68652344 C-13.32880069 275.37326305 -13.32801153 276.06000267 -13.32719846 276.76755257 C-13.31928742 283.66399781 -13.31163253 290.5604433 -13.3041653 297.45688903 C-13.2415058 355.30468032 -13.1356163 413.15233592 -13 471 C-12.01 470.67 -11.02 470.34 -10 470 C-9.67 469.01 -9.34 468.02 -9 467 C-7.35 467.66 -5.7 468.32 -4 469 C-5.6040954 472.2081908 -8.86136799 473.49891513 -12 475 C-13.32926358 475.34920942 -14.66228678 475.68470295 -16 476 C-16.36614255 416.80486083 -16.64814615 357.60974873 -16.81704527 298.41371534 C-16.83700247 291.42668714 -16.85774736 284.43966138 -16.87890625 277.45263672 C-16.88099839 276.75734761 -16.88309054 276.06205851 -16.88524608 275.34570004 C-16.95341553 252.8134108 -17.07358599 230.28176397 -17.22075553 207.74986385 C-17.37601136 183.93665912 -17.47194544 160.12395155 -17.50541592 136.31024206 C-17.52738146 122.04492044 -17.59677561 107.78144314 -17.72666347 93.51668923 C-17.8111769 83.73755119 -17.83681675 73.95936787 -17.81602204 64.17989106 C-17.80576219 58.53499425 -17.82158679 52.89332145 -17.9072876 47.24899673 C-17.98521112 42.07914658 -17.98907438 36.91468301 -17.93438232 31.74458377 C-17.92762543 29.8762073 -17.94790434 28.0074937 -17.99813092 26.13978024 C-18.34378718 12.49109357 -18.34378718 12.49109357 -14.33808398 8.23363301 C-9.93420374 4.72332354 -5.12939214 2.27640651 0 0 Z " fill="#8DADDC" transform="translate(71,134)"/>
<path d="M0 0 C0.33 0 0.66 0 1 0 C1 153.12 1 306.24 1 464 C0.01 464.33 -0.98 464.66 -2 465 C-2.66 464.34 -3.32 463.68 -4 463 C-3.01 462.67 -2.02 462.34 -1 462 C-1.00037972 461.02491771 -1.00075944 460.04983542 -1.00115067 459.04520518 C-1.0235427 401.31848412 -1.04067615 343.59176322 -1.05106533 285.86503873 C-1.05231272 278.94151995 -1.05360927 272.01800118 -1.05493164 265.09448242 C-1.05512778 264.06099484 -1.05512778 264.06099484 -1.05532788 263.00662872 C-1.05959304 240.654283 -1.06710718 218.3019398 -1.07629722 195.94959561 C-1.08598694 172.33915729 -1.09199361 148.72872122 -1.09408849 125.11828083 C-1.09546406 110.96582348 -1.09981647 96.81337336 -1.10791647 82.66091823 C-1.11318192 72.97035388 -1.11480476 63.2797933 -1.11350138 53.58922762 C-1.11285768 47.98923691 -1.11387905 42.38925888 -1.11920547 36.7892704 C-1.12403795 31.67155838 -1.12433966 26.55386768 -1.12089889 21.43615472 C-1.12047305 19.57612188 -1.12177006 17.71608776 -1.12488318 15.85605747 C-1.12884466 13.34489675 -1.12676497 10.83381495 -1.12304783 8.32265568 C-1.12567484 7.58567944 -1.12830186 6.84870321 -1.13100848 6.08939436 C-1.1141458 1.1141458 -1.1141458 1.1141458 0 0 Z " fill="#5998F4" transform="translate(156,85)"/>
<path d="M0 0 C111 0 111 0 119 1 C119 1.33 119 1.66 119 2 C112.33147118 2.86996089 105.8752767 3.111576 99.15600586 3.02172852 C97.58858643 3.0073172 97.58858643 3.0073172 95.98950195 2.99261475 C92.56454227 2.95985559 89.13971953 2.91943657 85.71484375 2.87890625 C83.32874522 2.85458253 80.94264175 2.83074013 78.55653381 2.80735779 C72.29792612 2.74474089 66.03940688 2.67561154 59.78088379 2.60510254 C53.38586429 2.53421603 46.99078244 2.46952092 40.59570312 2.40429688 C28.0637339 2.27557346 15.53184608 2.14017692 3 2 C3.01160156 3.26972656 3.02320313 4.53945312 3.03515625 5.84765625 C3.04455236 7.585936 3.05365056 9.32421738 3.0625 11.0625 C3.07087891 11.89072266 3.07925781 12.71894531 3.08789062 13.57226562 C3.10715599 18.67758787 2.89801246 23.7125172 2.50892639 28.80348206 C1.79401421 38.89083302 1.82303247 48.97312319 1.79467773 59.08178711 C1.78507919 61.27116574 1.77506801 63.46054258 1.76467896 65.6499176 C1.73783774 71.54965616 1.71671677 77.44940254 1.69667697 83.34916759 C1.67468794 89.53109684 1.64736293 95.71300253 1.62062073 101.89491272 C1.57086738 113.58166945 1.52586474 125.26843937 1.48259836 136.95522171 C1.43307687 150.26851235 1.37821443 163.58177833 1.32291877 176.89504611 C1.20936547 204.26334197 1.10246924 231.63166055 1 259 C0.67 259 0.34 259 0 259 C0 173.53 0 88.06 0 0 Z " fill="#C1DAFD" transform="translate(302,187)"/>
<path d="M0 0 C14.10820675 -0.0233805 28.21641049 -0.04093796 42.32463264 -0.05181217 C48.87560829 -0.05703118 55.42657091 -0.06411107 61.97753906 -0.07543945 C68.29932661 -0.08630313 74.62110164 -0.09228424 80.9428978 -0.09487724 C83.35502189 -0.0967252 85.7671453 -0.10033376 88.17926407 -0.10573006 C91.55718722 -0.11298661 94.9350586 -0.11398898 98.31298828 -0.11352539 C99.31064713 -0.11712067 100.30830597 -0.12071594 101.3361969 -0.12442017 C106.01936937 -0.11746333 110.38784114 0.08932922 115 1 C118.35963226 1.21336374 121.71454521 1.3879665 125.078125 1.51757812 C129.37105547 1.73468243 132.99115714 2.45283721 137 4 C137 4.66 137 5.32 137 6 C137.99 6.495 137.99 6.495 139 7 C129.97202827 5.87150353 120.98689403 4.41898327 112 3 C75.37 2.67 38.74 2.34 1 2 C1 86.81 1 171.62 1 259 C0.67 259 0.34 259 0 259 C-0.15025939 226.43820241 -0.29536573 193.87638704 -0.4332476 161.31453479 C-0.44951918 157.47295467 -0.46583484 153.63137474 -0.48217773 149.78979492 C-0.48543066 149.02498447 -0.48868358 148.26017402 -0.49203508 147.4721875 C-0.54485632 135.07786945 -0.60125054 122.68357009 -0.6589582 110.28927394 C-0.71806353 97.57776487 -0.77334545 84.86624334 -0.82505554 72.15470201 C-0.85710135 64.30688824 -0.89215268 56.45909958 -0.93101191 48.61131654 C-0.96045745 42.60025559 -0.98459124 36.58918547 -1.00670624 30.57809258 C-1.01663717 28.10729457 -1.02831483 25.6365029 -1.04183006 23.16572189 C-1.05996478 19.80365162 -1.07193078 16.44161542 -1.08229065 13.07951355 C-1.08909444 12.09216931 -1.09589823 11.10482507 -1.10290819 10.08756131 C-1.10440054 9.1898389 -1.10589289 8.29211648 -1.10743046 7.36719036 C-1.11084794 6.59066229 -1.11426542 5.81413421 -1.11778647 5.01407498 C-1 3 -1 3 0 0 Z " fill="#286DDD" transform="translate(301,185)"/>
<path d="M0 0 C38 0 38 0 46 4 C46 4.33 46 4.66 46 5 C40.47322267 5.19392201 36.24385089 4.7479503 31 3 C31 2.67 31 2.34 31 2 C16.15 1.505 16.15 1.505 1 1 C1 26.08 1 51.16 1 77 C11.89 77 22.78 77 34 77 C34 77.33 34 77.66 34 78 C22.78 78 11.56 78 0 78 C0 52.26 0 26.52 0 0 Z " fill="#3572DE" transform="translate(368,232)"/>
<path d="M0 0 C8.11122828 2.28128295 13.45746062 9.11594095 17.87109375 15.88671875 C20.27154166 20.38029079 20.13802079 24.79914297 20.11352539 29.79785156 C20.11367142 30.57872131 20.11381744 31.35959106 20.1139679 32.16412354 C20.11327242 34.73965249 20.10549712 37.31510871 20.09765625 39.890625 C20.09579077 41.67852743 20.09436748 43.46643037 20.09336853 45.2543335 C20.08955357 49.95610978 20.07973198 54.65785508 20.06866455 59.35961914 C20.05842849 64.15901266 20.0538662 68.9584112 20.04882812 73.7578125 C20.03810881 83.1718886 20.02104463 92.58594172 20 102 C19.67 102 19.34 102 19 102 C18.99191315 101.05532364 18.98382629 100.11064728 18.97549438 99.13734436 C18.89779838 90.20733213 18.81000108 81.27746786 18.71247292 72.34764957 C18.66266061 67.75743152 18.61632996 63.1672348 18.578125 58.5769043 C18.54108098 54.14179103 18.49467072 49.70686319 18.44193649 45.27190971 C18.42349362 43.58519196 18.40834893 41.89843462 18.39665604 40.21165657 C18.32028511 27.97908336 18.32028511 27.97908336 16 16 C15.34 16 14.68 16 14 16 C13.896875 15.360625 13.79375 14.72125 13.6875 14.0625 C13.460625 13.381875 13.23375 12.70125 13 12 C12.01 11.67 11.02 11.34 10 11 C9.67 10.34 9.34 9.68 9 9 C6.47266765 8.34444881 6.47266765 8.34444881 4 8 C3.67 6.35 3.34 4.7 3 3 C2.01 2.67 1.02 2.34 0 2 C0 1.34 0 0.68 0 0 Z " fill="#2D6AE1" transform="translate(614,86)"/>
<path d="M0 0 C9.24 0 18.48 0 28 0 C31 6 31 6 31 8 C30.01 7.67 29.02 7.34 28 7 C27.34 5.35 26.68 3.7 26 2 C17.75 1.67 9.5 1.34 1 1 C1 31.36 1 61.72 1 93 C0.67 93 0.34 93 0 93 C0 62.31 0 31.62 0 0 Z " fill="#2A69D7" transform="translate(368,353)"/>
<path d="M0 0 C0.79664063 0.40992188 1.59328125 0.81984375 2.4140625 1.2421875 C3.47367187 1.78101563 4.53328125 2.31984375 5.625 2.875 C6.66914063 3.40867187 7.71328125 3.94234375 8.7890625 4.4921875 C14.29348437 7.07698901 18.7640425 8.25182013 24.8671875 8.23046875 C26.16527344 8.22853516 27.46335937 8.22660156 28.80078125 8.22460938 C29.8055249 8.21530396 29.8055249 8.21530396 30.83056641 8.20581055 C32.8624335 8.18761255 34.89384125 8.18530094 36.92578125 8.18554688 C43.3687293 8.15681222 49.63352308 8.01765935 56 7 C56 7.66 56 8.32 56 9 C48.77300266 10.74424317 41.98246069 11.2818005 34.5625 11.1875 C33.60279297 11.18685547 32.64308594 11.18621094 31.65429688 11.18554688 C11.71505547 11.06470299 11.71505547 11.06470299 7 7 C7 6.34 7 5.68 7 5 C5.35 4.67 3.7 4.34 2 4 C2 3.34 2 2.68 2 2 C1.34 2 0.68 2 0 2 C0 1.34 0 0.68 0 0 Z " fill="#3473E1" transform="translate(446,442)"/>
<path d="M0 0 C2.68554688 0.73242188 2.68554688 0.73242188 5.37109375 1.46484375 C9.2024482 2.24477772 13.11398146 2.56822016 17 3 C17 16.53 17 30.06 17 44 C8 47 8 47 6 47 C6 46.01 6 45.02 6 44 C6.7425 43.731875 7.485 43.46375 8.25 43.1875 C11.07627553 41.96706284 12.84752158 41.20175678 15 39 C15.42646001 36.29571712 15.6048041 33.9787448 15.609375 31.26953125 C15.62591125 30.51911057 15.64244751 29.76868988 15.65948486 28.99552917 C15.70803052 26.60110344 15.72934885 24.20731298 15.75 21.8125 C15.77815443 20.18811897 15.80808112 18.56376761 15.83984375 16.93945312 C15.91379039 12.95968773 15.96332417 8.98027633 16 5 C15.15695312 5.01160156 14.31390625 5.02320313 13.4453125 5.03515625 C12.34960938 5.04417969 11.25390625 5.05320312 10.125 5.0625 C9.03445313 5.07410156 7.94390625 5.08570313 6.8203125 5.09765625 C4 5 4 5 2 4 C2 3.34 2 2.68 2 2 C1.34 2 0.68 2 0 2 C0 1.34 0 0.68 0 0 Z " fill="#DCF5FE" transform="translate(490,403)"/>
<path d="M0 0 C1.60898365 2.84624107 2.25144868 4.89089241 2.25878906 8.15429688 C2.26509338 8.96193481 2.27139771 9.76957275 2.27789307 10.60168457 C2.2738446 11.46531616 2.26979614 12.32894775 2.265625 13.21875 C2.26753845 14.11364136 2.2694519 15.00853271 2.27142334 15.93054199 C2.27278259 17.82007122 2.26910428 19.70960988 2.26074219 21.59912109 C2.25003899 24.48947142 2.26064625 27.37920022 2.2734375 30.26953125 C2.27211586 32.1067722 2.26955337 33.94401277 2.265625 35.78125 C2.26967346 36.64488159 2.27372192 37.50851318 2.27789307 38.39831543 C2.27158875 39.20595337 2.26528442 40.01359131 2.25878906 40.84570312 C2.25719788 41.55311646 2.25560669 42.26052979 2.25396729 42.98937988 C1.95873916 45.32665578 1.15258149 46.96111988 0 49 C-1.14412321 38.33543547 -0.93651212 27.88467278 -0.5625 17.1875 C-0.50912362 15.51239013 -0.45638509 13.8372598 -0.40429688 12.16210938 C-0.276866 8.10780014 -0.14086785 4.05386368 0 0 Z " fill="#BFDEFE" transform="translate(493,244)"/>
<path d="M0 0 C0.66 0.33 1.32 0.66 2 1 C-0.88341534 5.21422242 -3.04303419 6.76075855 -8 8 C-6.29462701 13.68457664 -4.34725828 19.92099981 0.1875 23.9375 C3.01749901 27.15784371 2.82208569 30.83680509 3 35 C-0.16185791 30.91502627 -2.61459801 26.56603094 -5.125 22.0625 C-5.58003906 21.26392578 -6.03507812 20.46535156 -6.50390625 19.64257812 C-6.93832031 18.86462891 -7.37273437 18.08667969 -7.8203125 17.28515625 C-8.21492676 16.58269775 -8.60954102 15.88023926 -9.01611328 15.15649414 C-10.11097964 12.75675357 -10.67530803 10.61586291 -11 8 C-9.16531709 5.45687517 -6.56608458 3.92050235 -3.9375 2.25 C-2.89916016 1.57710938 -2.89916016 1.57710938 -1.83984375 0.890625 C-1.23269531 0.59671875 -0.62554687 0.3028125 0 0 Z " fill="#2B6CE6" transform="translate(466,331)"/>
<path d="M0 0 C0.66 0.66 1.32 1.32 2 2 C-6.70043565 7.53227701 -15.46686077 12.93249141 -24.375 18.125 C-25.20104736 18.61009033 -26.02709473 19.09518066 -26.87817383 19.5949707 C-27.64798584 20.0405835 -28.41779785 20.48619629 -29.2109375 20.9453125 C-29.89462402 21.34250488 -30.57831055 21.73969727 -31.28271484 22.14892578 C-33 23 -33 23 -35 23 C-35 22.34 -35 21.68 -35 21 C-32.35261084 19.5393715 -31.10551666 19 -28 19 C-27.814375 18.401875 -27.62875 17.80375 -27.4375 17.1875 C-25.69325754 14.53321799 -23.96791845 14.01949074 -21.0703125 12.91015625 C-16.16100592 10.75191393 -11.54395916 7.58807228 -7.8125 3.75 C-5.45577665 1.47454297 -3.12262275 0.85162439 0 0 Z " fill="#E5F6FE" transform="translate(115,105)"/>
<path d="M0 0 C2.64 0.33 5.28 0.66 8 1 C8 1.99 8 2.98 8 4 C9.57201172 4.09087891 9.57201172 4.09087891 11.17578125 4.18359375 C12.55470048 4.26801738 13.93360605 4.35266447 15.3125 4.4375 C16.34793945 4.49647461 16.34793945 4.49647461 17.40429688 4.55664062 C20.47161535 4.74927415 23.06968152 5.02322717 26 6 C27.47965926 6.14573058 28.96403843 6.24663268 30.44921875 6.31640625 C31.29677734 6.35830078 32.14433594 6.40019531 33.01757812 6.44335938 C33.89865234 6.48267578 34.77972656 6.52199219 35.6875 6.5625 C36.58017578 6.60568359 37.47285156 6.64886719 38.39257812 6.69335938 C40.59490108 6.79935353 42.79733473 6.90142051 45 7 C45 7.33 45 7.66 45 8 C40.94751078 8.12543419 36.89580273 8.21518042 32.84179688 8.2746582 C31.46854934 8.29950103 30.09542965 8.33338887 28.72265625 8.37719727 C18.97112711 8.68015047 8.7806742 8.27884734 1.17480469 1.33325195 C0.78711914 0.89327881 0.39943359 0.45330566 0 0 Z " fill="#CBE7FD" transform="translate(449,443)"/>
<path d="M0 0 C1.40070613 4.20211839 0.76587588 7.33309368 -1.0625 11.3125 C-1.371875 11.869375 -1.68125 12.42625 -2 13 C-2.66 13 -3.32 13 -4 13 C-4.061875 13.721875 -4.12375 14.44375 -4.1875 15.1875 C-5.52695702 19.824082 -8.75412594 22.13975363 -12.625 24.8125 C-15 26 -15 26 -18 26 C-17.43152344 25.48953125 -16.86304688 24.9790625 -16.27734375 24.453125 C-8.81846292 17.43007194 -3.62500801 9.59663955 0 0 Z " fill="#2B6DE6" transform="translate(491,300)"/>
<path d="M0 0 C0.33 0 0.66 0 1 0 C1.04954963 5.0353859 1.08579037 10.0706289 1.10986328 15.10620117 C1.11990208 16.81814039 1.13353595 18.53006255 1.15087891 20.24194336 C1.17522073 22.70691142 1.18650438 25.17165215 1.1953125 27.63671875 C1.20563507 28.39836838 1.21595764 29.16001801 1.22659302 29.94474792 C1.22746597 34.10758992 0.81883724 37.25113208 -1 41 C-1.33 41.99 -1.66 42.98 -2 44 C-3.62890625 45.38671875 -3.62890625 45.38671875 -5.5625 46.6875 C-6.20316406 47.12449219 -6.84382813 47.56148438 -7.50390625 48.01171875 C-8.24447266 48.50091797 -8.24447266 48.50091797 -9 49 C-9.66 48.67 -10.32 48.34 -11 48 C-10.52949219 47.52691406 -10.05898438 47.05382812 -9.57421875 46.56640625 C-8.95160156 45.90511719 -8.32898438 45.24382812 -7.6875 44.5625 C-7.07261719 43.92441406 -6.45773437 43.28632813 -5.82421875 42.62890625 C-0.04646442 34.30250653 -0.46703545 24.67768044 -0.3125 14.9375 C-0.27926379 13.48499645 -0.24476849 12.03252114 -0.20898438 10.58007812 C-0.12480821 7.05359261 -0.05766349 3.52703038 0 0 Z " fill="#BFDDFD" transform="translate(429,255)"/>
<path d="M0 0 C4.76101311 4.76101311 3.22398199 12.51700267 3.24023438 18.83105469 C3.24987691 21.09608578 3.28087954 23.36018422 3.3125 25.625 C3.36834439 33.22550605 3.22823478 39.96370185 0 47 C-0.99 47.495 -0.99 47.495 -2 48 C-2.125 45.625 -2.125 45.625 -2 43 C-1.34 42.34 -0.68 41.68 0 41 C1.24241362 35.8966681 1.15289728 30.78128432 1.125 25.5625 C1.12306641 24.68883789 1.12113281 23.81517578 1.11914062 22.91503906 C1.06878086 15.24636563 0.64829 7.64056068 0 0 Z " fill="#2B69D9" transform="translate(426,248)"/>
<path d="M0 0 C4.53489627 -0.04986353 9.0696289 -0.08593637 13.60473633 -0.10986328 C15.14382715 -0.11985006 16.68289935 -0.13344419 18.22192383 -0.15087891 C37.69360442 -0.36575626 37.69360442 -0.36575626 46 4 C46 4.33 46 4.66 46 5 C40.47322267 5.19392201 36.24385089 4.7479503 31 3 C31 2.67 31 2.34 31 2 C20.77 1.67 10.54 1.34 0 1 C0 0.67 0 0.34 0 0 Z " fill="#417EEB" transform="translate(368,232)"/>
<path d="M0 0 C1.32 0.33 2.64 0.66 4 1 C-1.77054246 4.51019173 -7.58344154 7.94378457 -13.4375 11.3125 C-14.34169678 11.83650391 -14.34169678 11.83650391 -15.26416016 12.37109375 C-17.82682799 13.83919103 -20.18875042 15.06291681 -23 16 C-22.67 15.01 -22.34 14.02 -22 13 C-20.35 12.67 -18.7 12.34 -17 12 C-17 11.34 -17 10.68 -17 10 C-15.390625 8.52734375 -15.390625 8.52734375 -13.25 6.9375 C-12.55390625 6.41027344 -11.8578125 5.88304687 -11.140625 5.33984375 C-9.01941993 4.01215518 -7.44008213 3.45001515 -5 3 C-4.0925 2.814375 -3.185 2.62875 -2.25 2.4375 C-1.5075 2.293125 -0.765 2.14875 0 2 C0 1.34 0 0.68 0 0 Z " fill="#779DD6" transform="translate(98,582)"/>
<path d="M0 0 C11.62102645 0.55870319 23.90017071 3.10843291 34 9 C33.67 9.66 33.34 10.32 33 11 C28.71 9.68 24.42 8.36 20 7 C20 6.34 20 5.68 20 5 C18.1128125 4.8453125 18.1128125 4.8453125 16.1875 4.6875 C10.6148782 4.08409509 5.36039942 2.59309067 0 1 C0 0.67 0 0.34 0 0 Z " fill="#DAF3FE" transform="translate(422,189)"/>
<path d="M0 0 C0.33 0.66 0.66 1.32 1 2 C-0.0828125 2.5878125 -0.0828125 2.5878125 -1.1875 3.1875 C-4.12238841 4.91476503 -4.12238841 4.91476503 -6.4375 7.625 C-9.36781101 10.34089801 -11.07984683 10.72650094 -15 11 C-15.33 11.99 -15.66 12.98 -16 14 C-17.65 13.67 -19.3 13.34 -21 13 C-17.65107167 10.3815977 -14.1218967 8.15964992 -10.5 5.9375 C-9.93152344 5.58623047 -9.36304688 5.23496094 -8.77734375 4.87304688 C-5.90910707 3.1128413 -3.04315837 1.43953325 0 0 Z " fill="#799EDA" transform="translate(143,91)"/>
<path d="M0 0 C0 15.18 0 30.36 0 46 C-0.33 46 -0.66 46 -1 46 C-1 32.14 -1 18.28 -1 4 C-2.65 3.67 -4.3 3.34 -6 3 C-2.25 0 -2.25 0 0 0 Z " fill="#C9D7FA" transform="translate(111,578)"/>
<path d="M0 0 C0 0.99 0 1.98 0 3 C-0.804375 3.12375 -1.60875 3.2475 -2.4375 3.375 C-3.283125 3.58125 -4.12875 3.7875 -5 4 C-5.33 4.66 -5.66 5.32 -6 6 C-7.65848177 7.01351664 -9.32665961 8.01120795 -11 9 C-11.804375 9.721875 -12.60875 10.44375 -13.4375 11.1875 C-16.53315375 13.37710875 -18.28956952 13.34515632 -22 13 C-19.86979193 10.71464143 -17.7462071 9.10448528 -15.05859375 7.51953125 C-14.31029297 7.07802734 -13.56199219 6.63652344 -12.79101562 6.18164062 C-12.01435547 5.72982422 -11.23769531 5.27800781 -10.4375 4.8125 C-9.65697266 4.34908203 -8.87644531 3.88566406 -8.07226562 3.40820312 C-2.25472892 0 -2.25472892 0 0 0 Z " fill="#7A9ED9" transform="translate(113,110)"/>
<path d="M0 0 C9.24 0 18.48 0 28 0 C31 6 31 6 31 8 C30.01 7.67 29.02 7.34 28 7 C27.34 5.35 26.68 3.7 26 2 C13.13 1.505 13.13 1.505 0 1 C0 0.67 0 0.34 0 0 Z " fill="#3D74D8" transform="translate(368,353)"/>
<path d="M0 0 C2.61724095 2.36797991 4.32861729 4.89600354 6 8 C6 8.66 6 9.32 6 10 C5.01 10.33 4.02 10.66 3 11 C2.67 10.67 2.34 10.34 2 10 C1.34 10.66 0.68 11.32 0 12 C-1.28571429 3.42857143 -1.28571429 3.42857143 0 0 Z " fill="#2A6DF0" transform="translate(426,417)"/>
<path d="M0 0 C0 0.66 0 1.32 0 2 C0.66 2.33 1.32 2.66 2 3 C-4.39205856 2.27637073 -10.68027076 1.19656638 -17 0 C-17 -0.33 -17 -0.66 -17 -1 C-10.90463768 -2.11955635 -5.89392831 -1.96464277 0 0 Z " fill="#4080EB" transform="translate(438,189)"/>
<path d="M0 0 C3.3989732 3.2990034 6.52978744 6.71936769 9.5703125 10.3515625 C10.98125352 11.9783852 12.45964664 13.49610471 14 15 C9.39860359 13.51131293 6.49772906 11.25370145 3 8 C3 7.34 3 6.68 3 6 C2.34 6 1.68 6 1 6 C0.67 4.02 0.34 2.04 0 0 Z " fill="#326CE2" transform="translate(432,427)"/>
<path d="M0 0 C0.99 0.33 1.98 0.66 3 1 C3.33 1.99 3.66 2.98 4 4 C4.33 4 4.66 4 5 4 C5.50643553 6.22771342 6.0048962 8.45724076 6.5 10.6875 C6.7784375 11.92886719 7.056875 13.17023438 7.34375 14.44921875 C7.89354126 17.42398218 8.13795705 19.99368602 8 23 C6.32635172 19.94002504 5.40030693 17.00462795 4.5625 13.625 C3.4654605 9.43274191 2.06177396 5.82900877 0 2 C0 1.34 0 0.68 0 0 Z " fill="#316BE5" transform="translate(487,225)"/>
<path d="M0 0 C1.32 0.33 2.64 0.66 4 1 C-3.76965554 8.96607941 -3.76965554 8.96607941 -7 11 C-7.66 11 -8.32 11 -9 11 C-9 10.01 -9 9.02 -9 8 C-6 6 -6 6 -3 6 C-2.690625 5.38125 -2.38125 4.7625 -2.0625 4.125 C-1.375 2.75 -0.6875 1.375 0 0 Z " fill="#D6EFFE" transform="translate(475,320)"/>
<path d="M0 0 C2 1 2 1 3 3 C1.7934375 3.4640625 1.7934375 3.4640625 0.5625 3.9375 C-1.89080405 4.76335345 -1.89080405 4.76335345 -3 6 C-4.66617115 6.04063832 -6.33388095 6.042721 -8 6 C-8.33 6.99 -8.66 7.98 -9 9 C-10.32 8.67 -11.64 8.34 -13 8 C-12.31292969 7.59007812 -11.62585938 7.18015625 -10.91796875 6.7578125 C-10.01691406 6.21898437 -9.11585937 5.68015625 -8.1875 5.125 C-7.29417969 4.59132813 -6.40085937 4.05765625 -5.48046875 3.5078125 C-3.62705276 2.38116908 -1.80470083 1.20313389 0 0 Z " fill="#80A6DC" transform="translate(89,123)"/>
<path d="M0 0 C3.99500618 1.3697164 6.80009492 3.25722422 10 6 C9.67 6.99 9.34 7.98 9 9 C7.35 8.67 5.7 8.34 4 8 C3.67 6.35 3.34 4.7 3 3 C2.01 2.67 1.02 2.34 0 2 C0 1.34 0 0.68 0 0 Z " fill="#2C6CEE" transform="translate(614,86)"/>
<path d="M0 0 C4.53755187 3.15107769 6.73903295 6.04326455 9 11 C8.75 13.9375 8.75 13.9375 8 16 C7.67 16 7.34 16 7 16 C6.67 13.69 6.34 11.38 6 9 C5.34 9 4.68 9 4 9 C3.896875 8.360625 3.79375 7.72125 3.6875 7.0625 C3.460625 6.381875 3.23375 5.70125 3 5 C2.01 4.67 1.02 4.34 0 4 C0 2.68 0 1.36 0 0 Z " fill="#3977E4" transform="translate(624,93)"/>
<path d="M0 0 C2.15377564 2.62198774 3.40072174 4.64404172 4 8 C2.35 8.66 0.7 9.32 -1 10 C-2.15837626 5.94568308 -1.83691257 3.78187881 0 0 Z " fill="#E7F7FB" transform="translate(469,368)"/>
<path d="M0 0 C1.7015625 0.4640625 1.7015625 0.4640625 3.4375 0.9375 C7.92461414 2.06931233 12.39707347 2.59511294 17 3 C17 3.33 17 3.66 17 4 C14.87562788 4.19448477 12.75046809 4.38038289 10.625 4.5625 C9.44164062 4.66691406 8.25828125 4.77132813 7.0390625 4.87890625 C4 5 4 5 2 4 C2 3.34 2 2.68 2 2 C1.34 2 0.68 2 0 2 C0 1.34 0 0.68 0 0 Z " fill="#C4DFFD" transform="translate(490,403)"/>
<path d="M0 0 C-5.00932754 3.00559652 -8.32723489 3.29341888 -14 3 C-14 2.34 -14 1.68 -14 1 C-12.23103898 0.63659714 -10.45973374 0.28459117 -8.6875 -0.0625 C-7.70136719 -0.25972656 -6.71523438 -0.45695312 -5.69921875 -0.66015625 C-3 -1 -3 -1 0 0 Z " fill="#3270E5" transform="translate(414,306)"/>
<path d="M0 0 C-1.24853673 0.79397239 -2.49890043 1.58507217 -3.75 2.375 C-4.44609375 2.81585938 -5.1421875 3.25671875 -5.859375 3.7109375 C-7.86517383 4.91880906 -9.89178296 5.98387737 -12 7 C-12 6.01 -12 5.02 -12 4 C-10.35 3.67 -8.7 3.34 -7 3 C-6.67 2.01 -6.34 1.02 -6 0 C-3 -1 -3 -1 0 0 Z " fill="#E4F5FE" transform="translate(130,99)"/>
<path d="M0 0 C0.66 0.33 1.32 0.66 2 1 C-1.20493909 4.31177039 -3.43400973 6.14387682 -8 7 C-8.66 6.67 -9.32 6.34 -10 6 C-8.3811004 4.96951963 -6.75467511 3.95085322 -5.125 2.9375 C-4.22007813 2.36902344 -3.31515625 1.80054688 -2.3828125 1.21484375 C-1.20332031 0.61349609 -1.20332031 0.61349609 0 0 Z " fill="#E0EFFC" transform="translate(69,602)"/>
<path d="M0 0 C1.98 0 3.96 0 6 0 C5.01 0.495 5.01 0.495 4 1 C4.33 3.64 4.66 6.28 5 9 C3.0625 8.4375 3.0625 8.4375 1 7 C0.25 3.375 0.25 3.375 0 0 Z " fill="#D2E9FB" transform="translate(452,336)"/>
<path d="M0 0 C4.78504172 2.48454089 7.86077669 4.47951843 11 9 C10.67 9.66 10.34 10.32 10 11 C9.5978125 10.0409375 9.5978125 10.0409375 9.1875 9.0625 C8.11332248 6.66868314 8.11332248 6.66868314 5 6 C5 5.34 5 4.68 5 4 C3.68 4 2.36 4 1 4 C0.67 2.68 0.34 1.36 0 0 Z " fill="#2F6FDD" transform="translate(415,237)"/>
<path d="M0 0 C0.66 0.33 1.32 0.66 2 1 C-1.00515368 4.46748502 -3.53009997 5.93111086 -8 7 C-8.66 6.67 -9.32 6.34 -10 6 C-8.3811004 4.96951963 -6.75467511 3.95085322 -5.125 2.9375 C-4.22007813 2.36902344 -3.31515625 1.80054688 -2.3828125 1.21484375 C-1.20332031 0.61349609 -1.20332031 0.61349609 0 0 Z " fill="#DAEEFC" transform="translate(95,586)"/>
<path d="M0 0 C6.14830711 1.20555041 8.35248219 2.91558124 12 8 C8.21516391 8 7.22592069 6.89417485 4.3125 4.5625 C3.50425781 3.92441406 2.69601562 3.28632813 1.86328125 2.62890625 C1.24839844 2.09136719 0.63351562 1.55382812 0 1 C0 0.67 0 0.34 0 0 Z " fill="#3671DF" transform="translate(464,202)"/>
<path d="M0 0 C0.66 0.33 1.32 0.66 2 1 C-0.89217759 5.69978858 -0.89217759 5.69978858 -4.046875 6.5546875 C-6.02330745 6.78597215 -8.01256369 6.90062818 -10 7 C-6.76478258 4.51137122 -3.40739705 2.24578442 0 0 Z " fill="#3977E1" transform="translate(466,331)"/>
<path d="M0 0 C2.3125 0.125 2.3125 0.125 5 1 C6.875 3.875 6.875 3.875 8 7 C7.67 7.99 7.34 8.98 7 10 C5.83043409 8.52312468 4.66441854 7.04343707 3.5 5.5625 C2.8503125 4.73878906 2.200625 3.91507813 1.53125 3.06640625 C0 1 0 1 0 0 Z " fill="#3976E4" transform="translate(479,215)"/>
<path d="M0 0 C0 3.96 0 7.92 0 12 C-0.33 12 -0.66 12 -1 12 C-1 9.36 -1 6.72 -1 4 C-2.65 3.67 -4.3 3.34 -6 3 C-2.25 0 -2.25 0 0 0 Z " fill="#D6EAFD" transform="translate(111,578)"/>
<path d="M0 0 C0.66 0.33 1.32 0.66 2 1 C1.34 2.98 0.68 4.96 0 7 C-3.875 5.25 -3.875 5.25 -5 3 C-2.625 1.4375 -2.625 1.4375 0 0 Z " fill="#124496" transform="translate(151,552)"/>
<path d="M0 0 C0.33 0.66 0.66 1.32 1 2 C2.32 2 3.64 2 5 2 C5.99 3.485 5.99 3.485 7 5 C6.67 5.99 6.34 6.98 6 8 C3.69 6.02 1.38 4.04 -1 2 C-0.67 1.34 -0.34 0.68 0 0 Z " fill="#D3EAFE" transform="translate(441,435)"/>
<path d="M0 0 C2.6486859 3.19668988 4.93992341 6.39486597 7 10 C4.08482708 8.92598892 2.22189824 8.22189824 0 6 C-0.125 2.875 -0.125 2.875 0 0 Z " fill="#D6EBFE" transform="translate(482,392)"/>
<path d="M0 0 C1.4370809 -0.05422947 2.87475462 -0.09289723 4.3125 -0.125 C5.11300781 -0.14820312 5.91351562 -0.17140625 6.73828125 -0.1953125 C9 0 9 0 12 2 C12 2.66 12 3.32 12 4 C6.06 2.515 6.06 2.515 0 1 C0 0.67 0 0.34 0 0 Z " fill="#D6F1FE" transform="translate(604,82)"/>
<path d="M0 0 C2.31 0 4.62 0 7 0 C6.67 0.99 6.34 1.98 6 3 C3.03 2.505 3.03 2.505 0 2 C0 1.34 0 0.68 0 0 Z " fill="#244B8D" transform="translate(132,649)"/>
<path d="M0 0 C2.91227269 3.28804981 4.49701212 5.59885603 5 10 C2.5 8.9375 2.5 8.9375 0 7 C-0.3125 3.3125 -0.3125 3.3125 0 0 Z " fill="#3472E7" transform="translate(418,400)"/>
<path d="M0 0 C2.64465038 3.1254959 3.84414715 6.08788267 5 10 C4.34 10.66 3.68 11.32 3 12 C2.49166409 10.75336669 1.99368855 9.50250613 1.5 8.25 C1.2215625 7.55390625 0.943125 6.8578125 0.65625 6.140625 C0 4 0 4 0 0 Z " fill="#2C6AE2" transform="translate(410,384)"/>
<path d="M0 0 C5.875 3.625 5.875 3.625 7 7 C6.01 7 5.02 7 4 7 C4 6.34 4 5.68 4 5 C2.68 4.34 1.36 3.68 0 3 C0 2.01 0 1.02 0 0 Z " fill="#D3ECFC" transform="translate(472,209)"/>
<path d="M0 0 C0 0.99 0 1.98 0 3 C-1.75 4.75 -1.75 4.75 -4 6 C-5.32 5.67 -6.64 5.34 -8 5 C-4.04 2.525 -4.04 2.525 0 0 Z " fill="#7DA0DC" transform="translate(156,83)"/>
<path d="M0 0 C3.48331435 3.01887244 4.79157144 5.56909529 6 10 C4.125 9.5 4.125 9.5 2 8 C1.01505446 5.34822355 0.54087618 2.79452693 0 0 Z " fill="#D2EAFF" transform="translate(483,221)"/>
<path d="M0 0 C2 0 2 0 3.5625 1.375 C5 3 5 3 6 5 C5.01 5.99 4.02 6.98 3 8 C0 2.25 0 2.25 0 0 Z " fill="#D5F0FC" transform="translate(414,390)"/>
<path d="M0 0 C6.875 3.75 6.875 3.75 8 6 C5.69 5.34 3.38 4.68 1 4 C0.67 2.68 0.34 1.36 0 0 Z " fill="#DBF0FE" transform="translate(464,203)"/>
<path d="M0 0 C0.66 0 1.32 0 2 0 C4.41685712 4.22949995 5.34833144 7.12335991 5 12 C2.91620491 8.15299368 1.50313376 4.09945571 0 0 Z " fill="#DEF3FE" transform="translate(631,101)"/>
<path d="M0 0 C-2.8125 2.0625 -2.8125 2.0625 -6 4 C-6.99 3.67 -7.98 3.34 -9 3 C-8 1 -8 1 -5.625 -0.1875 C-3 -1 -3 -1 0 0 Z " fill="#E3F4FD" transform="translate(152,86)"/>
<path d="M0 0 C-0.66 1.65 -1.32 3.3 -2 5 C-3.32 5 -4.64 5 -6 5 C-6 4.01 -6 3.02 -6 2 C-3 0 -3 0 0 0 Z " fill="#F9FDF3" transform="translate(448,432)"/>
<path d="M0 0 C1.13643966 3.40931897 0.86747764 4.00335456 -0.4375 7.1875 C-0.86869141 8.26064453 -0.86869141 8.26064453 -1.30859375 9.35546875 C-1.53675781 9.89816406 -1.76492188 10.44085938 -2 11 C-2.33 11 -2.66 11 -3 11 C-3 8.69 -3 6.38 -3 4 C-2.34 4 -1.68 4 -1 4 C-0.67 2.68 -0.34 1.36 0 0 Z " fill="#D0EAFE" transform="translate(492,294)"/>
<path d="M0 0 C0.66 0 1.32 0 2 0 C2.25 2.25 2.25 2.25 2 5 C0 7.3125 0 7.3125 -2 9 C-1.34 6.03 -0.68 3.06 0 0 Z " fill="#C1E0FF" transform="translate(428,286)"/>
<path d="M0 0 C-2.97 1.65 -5.94 3.3 -9 5 C-7 1 -7 1 -4.5 -0.3125 C-2 -1 -2 -1 0 0 Z " fill="#E1F4FD" transform="translate(144,91)"/>
</svg>
