<svg xmlns="http://www.w3.org/2000/svg"  viewBox="0 0 100 100" width="100px" height="100px" baseProfile="basic"><path fill="#3070b7" d="M47,18v29H18V18H47z"/><path fill="#1f212b" d="M47,48H18c-0.553,0-1-0.448-1-1V18c0-0.552,0.447-1,1-1h29c0.553,0,1,0.448,1,1v29	C48,47.552,47.553,48,47,48z M19,46h27V19H19V46z"/><path fill="#3070b7" d="M82,18v29H53V18H82z"/><path fill="#1f212b" d="M82,48H53c-0.553,0-1-0.448-1-1V18c0-0.552,0.447-1,1-1h29c0.553,0,1,0.448,1,1v29	C83,47.552,82.553,48,82,48z M54,46h27V19H54V46z"/><path fill="#3070b7" d="M47,53v29H18V53H47z"/><path fill="#1f212b" d="M47,83H18c-0.553,0-1-0.448-1-1V53c0-0.552,0.447-1,1-1h29c0.553,0,1,0.448,1,1v29	C48,82.552,47.553,83,47,83z M19,81h27V54H19V81z"/><path fill="#3070b7" d="M82,53v29H53V53H82z"/><path fill="#1f212b" d="M82,83H53c-0.553,0-1-0.448-1-1V53c0-0.552,0.447-1,1-1h29c0.553,0,1,0.448,1,1v29	C83,82.552,82.553,83,82,83z M54,81h27V54H54V81z"/><path fill="#1f212b" d="M22.5,36c-0.276,0-0.5-0.224-0.5-0.5v-13c0-0.276,0.224-0.5,0.5-0.5h16c0.276,0,0.5,0.224,0.5,0.5	S38.776,23,38.5,23H23v12.5C23,35.776,22.776,36,22.5,36z"/><path fill="#1f212b" d="M22.5,43c-0.276,0-0.5-0.224-0.5-0.5v-4c0-0.276,0.224-0.5,0.5-0.5s0.5,0.224,0.5,0.5v4	C23,42.776,22.776,43,22.5,43z"/><path fill="#1f212b" d="M26.5,78h-4c-0.276,0-0.5-0.224-0.5-0.5v-20c0-0.276,0.224-0.5,0.5-0.5s0.5,0.224,0.5,0.5V77h3.5	c0.276,0,0.5,0.224,0.5,0.5S26.776,78,26.5,78z"/><path fill="#1f212b" d="M39.5,78h-10c-0.276,0-0.5-0.224-0.5-0.5s0.224-0.5,0.5-0.5h10c0.276,0,0.5,0.224,0.5,0.5	S39.776,78,39.5,78z"/><path fill="#1f212b" d="M77.5,78h-20c-0.276,0-0.5-0.224-0.5-0.5s0.224-0.5,0.5-0.5H77V64.5c0-0.276,0.224-0.5,0.5-0.5	s0.5,0.224,0.5,0.5v13C78,77.776,77.776,78,77.5,78z"/><path fill="#1f212b" d="M77.5,62c-0.276,0-0.5-0.224-0.5-0.5v-4c0-0.276,0.224-0.5,0.5-0.5s0.5,0.224,0.5,0.5v4	C78,61.776,77.776,62,77.5,62z"/><path fill="#1f212b" d="M77.5,43c-0.276,0-0.5-0.224-0.5-0.5V23h-8.5c-0.276,0-0.5-0.224-0.5-0.5s0.224-0.5,0.5-0.5h9	c0.276,0,0.5,0.224,0.5,0.5v20C78,42.776,77.776,43,77.5,43z"/><path fill="#1f212b" d="M65.5,23h-8c-0.276,0-0.5-0.224-0.5-0.5s0.224-0.5,0.5-0.5h8c0.276,0,0.5,0.224,0.5,0.5	S65.776,23,65.5,23z"/></svg>