<?xml version="1.0" encoding="UTF-8"?>
<svg version="1.1" xmlns="http://www.w3.org/2000/svg" width="225" height="225">
<path d="M0 0 C74.25 0 148.5 0 225 0 C225 74.25 225 148.5 225 225 C150.75 225 76.5 225 0 225 C0 150.75 0 76.5 0 0 Z " fill="#FDFDFD" transform="translate(0,0)"/>
<path d="M0 0 C9.57 0 19.14 0 29 0 C33 10 33 10 33 13 C33.66 13 34.32 13 35 13 C35.433125 14.2375 35.86625 15.475 36.3125 16.75 C37.26280101 19.33718313 38.01130532 21.01413165 39.75 23.1875 C41 25 41 25 40.76171875 27.2421875 C39.88796887 30.40561014 38.59065409 33.03438087 37.0625 35.9375 C34.98287072 39.89748205 33.31952256 43.72270706 32 48 C35.88320881 42.71452134 39.58220496 37.43600861 42.09765625 31.33984375 C44 29 44 29 47.73828125 28.29296875 C49.26222266 28.23239367 50.78739641 28.19871632 52.3125 28.1875 C53.10833496 28.16308838 53.90416992 28.13867676 54.72412109 28.11352539 C57.14987767 28.04736839 59.57344679 28.01791181 62 28 C62.73041504 27.99162109 63.46083008 27.98324219 64.21337891 27.97460938 C68.14324149 27.93416167 72.07039376 27.94314075 76 28 C76 28.99 76 29.98 76 31 C76.66 31 77.32 31 78 31 C79.49641309 33.72163157 80.98592779 36.44637567 82.4609375 39.1796875 C83.57791711 41.22653846 84.74347327 43.24711646 85.9375 45.25 C87.38731778 49.00246955 87.10115511 51.14595711 86 55 C83.625 58.125 83.625 58.125 81 61 C80.443125 61.94875 79.88625 62.8975 79.3125 63.875 C78.879375 64.57625 78.44625 65.2775 78 66 C77.34 66 76.68 66 76 66 C75.9175 66.53625 75.835 67.0725 75.75 67.625 C74.6585373 71.08129854 73.37978239 73.23350297 71 76 C68.08793961 76.87865167 65.2761189 76.88503688 62.25 76.875 C61.45722656 76.895625 60.66445312 76.91625 59.84765625 76.9375 C57.89889185 76.98445818 55.94932543 76.99574383 54 77 C54 77.33 54 77.66 54 78 C55.11375 77.8659375 56.2275 77.731875 57.375 77.59375 C62.63451963 77.35094053 67.25115961 77.54228287 72 80 C78.51673539 86.28991981 85.00082496 95.40762392 88 104 C87.31591797 106.57763672 87.31591797 106.57763672 86 109 C85.62214355 109.73259033 85.24428711 110.46518066 84.85498047 111.2199707 C84.44650879 111.94788818 84.03803711 112.67580566 83.6171875 113.42578125 C83.17246094 114.22177734 82.72773438 115.01777344 82.26953125 115.83789062 C81.80933594 116.65451172 81.34914062 117.47113281 80.875 118.3125 C80.17310547 119.56643555 80.17310547 119.56643555 79.45703125 120.84570312 C78.3073741 122.89866233 77.15496198 124.95002202 76 127 C71.33229885 127.06563955 66.66763393 127.05617148 62 127 C61.28956543 126.99419922 60.57913086 126.98839844 59.84716797 126.98242188 C57.70889743 126.95346764 55.57459346 126.88779527 53.4375 126.8125 C52.13683594 126.77769531 50.83617187 126.74289063 49.49609375 126.70703125 C44.05475607 125.6066043 42.05162265 122.50725799 38.98046875 118.10546875 C38.38878906 117.14253906 37.79710937 116.17960937 37.1875 115.1875 C36.28064453 113.72376953 36.28064453 113.72376953 35.35546875 112.23046875 C34.90816406 111.49441406 34.46085937 110.75835937 34 110 C34 113.77352092 36.78224265 117.40627348 38.59960938 120.68164062 C39.99346213 123.33136879 41.00920734 125.42269958 40.9609375 128.44921875 C39.58325351 132.10624169 37.86742941 135.53709119 36.0625 139 C32.77101703 145.37998895 32.77101703 145.37998895 30 152 C29.34 152 28.68 152 28 152 C28 152.99 28 153.98 28 155 C18.76 155 9.52 155 0 155 C-1.65 150.71 -3.3 146.42 -5 142 C-5.99 141.01 -5.99 141.01 -7 140 C-10.31971866 133.68901542 -11.61906069 128.97441527 -10 122 C-9.67 121.34 -9.34 120.68 -9 120 C-8.34 120 -7.68 120 -7 120 C-6.9175 119.154375 -6.835 118.30875 -6.75 117.4375 C-5.84448389 113.28721782 -4.16811868 110.63684423 -2 107 C-2 106.34 -2 105.68 -2 105 C-2.47050781 105.83144531 -2.94101563 106.66289062 -3.42578125 107.51953125 C-4.04839844 108.60621094 -4.67101562 109.69289063 -5.3125 110.8125 C-6.23482422 112.43091797 -6.23482422 112.43091797 -7.17578125 114.08203125 C-8.67227812 116.47578535 -9.97437814 118.10206777 -12 120 C-12.495 120.86625 -12.99 121.7325 -13.5 122.625 C-15 125 -15 125 -18 126 C-22.61827131 126.43803276 -27.24211925 126.67743118 -31.87548828 126.89599609 C-33.86449603 126.9933665 -35.85227728 127.11494294 -37.83984375 127.23828125 C-39.55880859 127.30595703 -39.55880859 127.30595703 -41.3125 127.375 C-42.33988281 127.42398438 -43.36726563 127.47296875 -44.42578125 127.5234375 C-47 127 -47 127 -48.85546875 124.6640625 C-50 122 -50 122 -50 119 C-50.66 119 -51.32 119 -52 119 C-52.83819158 117.37750059 -53.6704116 115.75191503 -54.5 114.125 C-54.9640625 113.22007812 -55.428125 112.31515625 -55.90625 111.3828125 C-57 109 -57 109 -57 107 C-57.66 107 -58.32 107 -59 107 C-58.43450607 103.06946815 -57.28617442 100.46592463 -55.0625 97.1875 C-54.53785156 96.39730469 -54.01320313 95.60710937 -53.47265625 94.79296875 C-52.98667969 94.20128906 -52.50070313 93.60960937 -52 93 C-51.34 93 -50.68 93 -50 93 C-49.8453125 91.9171875 -49.8453125 91.9171875 -49.6875 90.8125 C-48.93206053 87.72206579 -47.84468685 85.58256159 -46 83 C-45.34 83 -44.68 83 -44 83 C-43.83757813 82.35546875 -43.67515625 81.7109375 -43.5078125 81.046875 C-42 79 -42 79 -38.3046875 78.390625 C-36.82887763 78.32414708 -35.35203983 78.27806121 -33.875 78.25 C-33.12089844 78.22035156 -32.36679688 78.19070312 -31.58984375 78.16015625 C-29.72714047 78.08942068 -27.86356245 78.04245017 -26 78 C-26 77.67 -26 77.34 -26 77 C-27.0621875 77.05542969 -28.124375 77.11085938 -29.21875 77.16796875 C-40.40417244 77.36362441 -40.40417244 77.36362441 -44.73828125 73.66015625 C-46.74168512 70.84935421 -48.41399803 68.0632017 -50 65 C-52.29551899 60.99632718 -54.9150673 57.57649195 -57.890625 54.0625 C-59 52 -59 52 -58.95703125 49.76953125 C-57.58406156 45.79632507 -55.5512896 42.30975201 -53.4375 38.6875 C-53.01275391 37.94693359 -52.58800781 37.20636719 -52.15039062 36.44335938 C-51.10648347 34.62531882 -50.05407808 32.81216252 -49 31 C-48.34 31 -47.68 31 -47 31 C-46.67 30.01 -46.34 29.02 -46 28 C-35.96588331 27.82292735 -26.00887894 28.37722531 -16 29 C-15.34 30.32 -14.68 31.64 -14 33 C-13.34 33 -12.68 33 -12 33 C-11.61328125 33.72445312 -11.2265625 34.44890625 -10.828125 35.1953125 C-8.0828303 40.29177543 -5.32931133 45.26213387 -2 50 C-3.66114378 44.31343902 -6.35565725 39.54636342 -9.34179688 34.47851562 C-12.06668017 29.61724469 -12.06668017 29.61724469 -11.73950195 26.58862305 C-10.96970707 23.89395975 -9.9789479 21.54112785 -8.75 19.0234375 C-8.08484375 17.64671875 -8.08484375 17.64671875 -7.40625 16.2421875 C-6.9421875 15.29601563 -6.478125 14.34984375 -6 13.375 C-5.08185331 11.48769846 -4.1651223 9.59970737 -3.25 7.7109375 C-2.84265625 6.87868652 -2.4353125 6.04643555 -2.015625 5.18896484 C-0.9053587 2.90345251 -0.9053587 2.90345251 0 0 Z " fill="#CCD3D9" transform="translate(98,35)"/>
<path d="M0 0 C2.69283947 0.0048579 5.38567876 0.00667864 8.07852173 0.00857544 C14.4069226 0.01475085 20.735253 0.03110734 27.06362307 0.05127442 C34.2778271 0.0737573 41.49203478 0.08465775 48.70626521 0.09466529 C63.52556674 0.11547786 78.34481338 0.15057578 93.1640625 0.1953125 C93.23451537 15.79123876 93.28722668 31.38712122 93.31949902 46.98316765 C93.33488984 54.2266259 93.35582799 61.46998461 93.39038086 68.71337891 C93.42052427 75.03548639 93.43969386 81.3575217 93.44632798 87.67969906 C93.45019866 91.01935726 93.46076512 94.35864736 93.48125267 97.69826889 C93.62916902 122.83092346 90.63805852 143.32919108 80.1640625 166.1953125 C79.86242187 166.97648438 79.56078125 167.75765625 79.25 168.5625 C77.673857 170.93238408 76.05827675 171.21486488 73.3515625 171.9453125 C72.49949219 172.18765625 71.64742187 172.43 70.76953125 172.6796875 C68.16197206 173.1957262 65.81445331 173.29047914 63.1640625 173.1953125 C60.70444362 163.97174169 62.05444247 157.7335484 66.56640625 149.48828125 C76.2888225 129.44916903 75.86729596 103.03158713 69.1640625 82.1953125 C68.89851562 81.30714844 68.63296875 80.41898437 68.359375 79.50390625 C64.26441961 67.66753521 56.03724039 55.90484572 47.1640625 47.1953125 C46.57625 46.60878906 45.9884375 46.02226563 45.3828125 45.41796875 C24.84970294 26.23343206 -0.68479473 19.3141892 -28.14941406 20.06347656 C-40.62824871 20.67585122 -55.78761057 24.45744686 -65.8359375 32.1953125 C-69.05364209 33.33061582 -72.41002822 34.1953125 -75.8359375 34.1953125 C-76.4134375 34.9996875 -76.9909375 35.8040625 -77.5859375 36.6328125 C-80.2953635 39.71854767 -81.83001084 39.92218114 -85.8359375 40.1953125 C-85.8359375 40.8553125 -85.8359375 41.5153125 -85.8359375 42.1953125 C-85.1759375 42.1953125 -84.5159375 42.1953125 -83.8359375 42.1953125 C-83.8359375 42.8553125 -83.8359375 43.5153125 -83.8359375 44.1953125 C-85.2265625 45.4921875 -85.2265625 45.4921875 -87.0859375 46.9453125 C-89.57063394 48.98326554 -91.4476685 50.84132194 -93.1484375 53.5703125 C-93.7053125 54.4365625 -94.2621875 55.3028125 -94.8359375 56.1953125 C-95.4959375 56.1953125 -96.1559375 56.1953125 -96.8359375 56.1953125 C-96.9596875 56.8346875 -97.0834375 57.4740625 -97.2109375 58.1328125 C-97.4171875 58.8134375 -97.6234375 59.4940625 -97.8359375 60.1953125 C-98.8259375 60.6903125 -98.8259375 60.6903125 -99.8359375 61.1953125 C-99.8359375 56.9053125 -99.8359375 52.6153125 -99.8359375 48.1953125 C-102.4759375 48.1953125 -105.1159375 48.1953125 -107.8359375 48.1953125 C-107.8359375 45.8853125 -107.8359375 43.5753125 -107.8359375 41.1953125 C-106.6603125 40.7209375 -105.4846875 40.2465625 -104.2734375 39.7578125 C-98.54864022 36.93615975 -94.66346679 31.85037108 -91.8359375 26.1953125 C-90.8459375 26.1953125 -89.8559375 26.1953125 -88.8359375 26.1953125 C-88.60132812 25.60234375 -88.36671875 25.009375 -88.125 24.3984375 C-82.16416159 14.21082276 -61.68971361 7.40244713 -50.7109375 4.3203125 C-50.03216553 4.12937012 -49.35339355 3.93842773 -48.65405273 3.74169922 C-46.39194829 3.15482371 -44.12455854 2.66911988 -41.8359375 2.1953125 C-40.99542847 2.0207251 -40.15491943 1.8461377 -39.28894043 1.66625977 C-26.29916276 -0.58554757 -13.13615775 -0.05374134 0 0 Z " fill="#71BA81" transform="translate(131.8359375,-0.1953125)"/>
<path d="M0 0 C0.39770223 2.33650061 0.7197274 4.64833774 1 7 C1.103125 7.64066406 1.20625 8.28132813 1.3125 8.94140625 C1.80537975 14.35281523 0.14037689 18.23899629 -2.25 23 C-12.63150972 44.01564934 -13.18126799 69.28626427 -5.86328125 91.44140625 C-4.67374021 94.67980977 -3.37979139 97.83849601 -2 101 C-1.64292969 101.84949219 -1.28585938 102.69898438 -0.91796875 103.57421875 C5.79695261 118.30908153 17.57021352 130.28711705 31 139 C31.75796875 139.51433594 32.5159375 140.02867187 33.296875 140.55859375 C52.92276038 153.23638884 77.73866077 156.93780731 100.5625 152.9375 C108.73804106 151.09399564 116.42488962 147.95865047 124.1315918 144.70849609 C126.06567334 143.97509682 127.98557287 143.4626569 130 143 C130 142.34 130 141.68 130 141 C132.1953125 139.34375 132.1953125 139.34375 135.125 137.5 C136.07632813 136.8915625 137.02765625 136.283125 138.0078125 135.65625 C141.5750782 133.68167995 145.0563142 132.22866892 149.125 131.75 C152.17299836 130.53080066 153.24758949 127.68337859 155 125 C157.25 123.625 157.25 123.625 159 123 C158.79375 122.38125 158.5875 121.7625 158.375 121.125 C158.25125 120.42375 158.1275 119.7225 158 119 C158.66 118.34 159.32 117.68 160 117 C160.66 117 161.32 117 162 117 C161.67 119.64 161.34 122.28 161 125 C164.96 125 168.92 125 173 125 C171.6 130.6 171.6 130.6 170 133 C167.375 134.25 167.375 134.25 165 135 C165 135.66 165 136.32 165 137 C164.34 137.33 163.68 137.66 163 138 C162.67 138.99 162.34 139.98 162 141 C158.4375 142.1875 158.4375 142.1875 155 143 C154.9175 143.92167969 154.835 144.84335938 154.75 145.79296875 C153.63719985 150.55134857 151.21785285 151.53058311 147.25 154.078125 C119.34046643 170.58232033 94.10095766 174.49438054 61.89453125 174.29296875 C59.23124954 174.28736036 56.56799222 174.28294817 53.90470886 174.28010559 C47.66497049 174.2708729 41.42539449 174.24638153 35.18572682 174.21605712 C28.06815333 174.18223539 20.95057105 174.16595816 13.83293688 174.15097082 C-0.77812488 174.11982131 -15.38906016 174.06723667 -30 174 C-30.04685556 158.17005124 -30.08205497 142.34012141 -30.10362434 126.51012039 C-30.11390846 119.15890424 -30.12791358 111.80773134 -30.15087891 104.45654297 C-30.17090096 98.04440014 -30.18373722 91.63228865 -30.18817699 85.22011542 C-30.19076954 81.82932383 -30.19680241 78.43862187 -30.21146011 75.04785919 C-30.22606703 71.24962644 -30.22797408 67.45157682 -30.22705078 63.65332031 C-30.23424133 62.54632278 -30.24143188 61.43932526 -30.24884033 60.29878235 C-30.20549806 43.72322268 -26.25682867 27.0011299 -19.0625 12.0625 C-18.75103027 11.39444336 -18.43956055 10.72638672 -18.11865234 10.03808594 C-15.83756606 5.56887664 -13.65419801 3.76896123 -9 2 C-2.68421053 0 -2.68421053 0 0 0 Z " fill="#2F4389" transform="translate(30,51)"/>
<path d="M0 0 C0 0.99 0 1.98 0 3 C0.7425 3 1.485 3 2.25 3 C5.43725002 4.15900001 5.58790381 4.58321115 7 7.5 C7.47179687 8.57121094 7.47179687 8.57121094 7.953125 9.6640625 C9.42451295 12.94723411 11.24704297 16.00542971 13.046875 19.1171875 C14 21 14 21 14 23 C17.89543877 23.14553599 21.79017651 23.23415059 25.6875 23.3125 C26.79029297 23.35439453 27.89308594 23.39628906 29.02929688 23.43945312 C35.34156515 23.60821978 35.34156515 23.60821978 40.9375 21.0625 C43.63957653 17.05032575 46.0387872 12.95534313 48.3125 8.6875 C48.9940918 7.43356445 48.9940918 7.43356445 49.68945312 6.15429688 C50.80086326 4.10696242 51.9040603 2.05564469 53 0 C56.95522776 -0.11445997 60.88835267 -0.08334609 64.84375 0.01074219 C67.04547206 -0.00022654 69.18382544 -0.19155799 71.375 -0.3984375 C76.34709943 -0.63311366 80.58913704 -0.50596002 85 2 C91.46775846 8.40310726 97.98380047 17.35885023 101 26 C100.31591797 28.57763672 100.31591797 28.57763672 99 31 C98.62214355 31.73259033 98.24428711 32.46518066 97.85498047 33.2199707 C97.24227295 34.31184692 97.24227295 34.31184692 96.6171875 35.42578125 C96.17246094 36.22177734 95.72773438 37.01777344 95.26953125 37.83789062 C94.80933594 38.65451172 94.34914062 39.47113281 93.875 40.3125 C93.40707031 41.14845703 92.93914062 41.98441406 92.45703125 42.84570312 C91.3073741 44.89866233 90.15496198 46.95002202 89 49 C84.33229885 49.06563955 79.66763393 49.05617148 75 49 C73.93434814 48.99129883 73.93434814 48.99129883 72.84716797 48.98242188 C70.70889743 48.95346764 68.57459346 48.88779527 66.4375 48.8125 C65.13683594 48.77769531 63.83617187 48.74289063 62.49609375 48.70703125 C57.05475607 47.6066043 55.05162265 44.50725799 51.98046875 40.10546875 C51.38878906 39.14253906 50.79710937 38.17960937 50.1875 37.1875 C49.58292969 36.21167969 48.97835937 35.23585937 48.35546875 34.23046875 C47.90816406 33.49441406 47.46085937 32.75835937 47 32 C47 35.77352092 49.78224265 39.40627348 51.59960938 42.68164062 C52.99346213 45.33136879 54.00920734 47.42269958 53.9609375 50.44921875 C52.58325351 54.10624169 50.86742941 57.53709119 49.0625 61 C45.77101703 67.37998895 45.77101703 67.37998895 43 74 C42.34 74 41.68 74 41 74 C41 74.99 41 75.98 41 77 C31.76 77 22.52 77 13 77 C11.35 72.71 9.7 68.42 8 64 C7.34 63.34 6.68 62.68 6 62 C2.68028134 55.68901542 1.38093931 50.97441527 3 44 C3.495 43.01 3.495 43.01 4 42 C4.66 42 5.32 42 6 42 C6.0825 41.154375 6.165 40.30875 6.25 39.4375 C7.15551611 35.28721782 8.83188132 32.63684423 11 29 C11 28.34 11 27.68 11 27 C10.52949219 27.83144531 10.05898437 28.66289062 9.57421875 29.51953125 C8.95160156 30.60621094 8.32898438 31.69289062 7.6875 32.8125 C7.07261719 33.89144531 6.45773438 34.97039062 5.82421875 36.08203125 C4.32772188 38.47578535 3.02562186 40.10206777 1 42 C0.505 42.86625 0.01 43.7325 -0.5 44.625 C-2 47 -2 47 -5 48 C-9.61827131 48.43803276 -14.24211925 48.67743118 -18.87548828 48.89599609 C-20.86449603 48.9933665 -22.85227728 49.11494294 -24.83984375 49.23828125 C-25.98582031 49.28339844 -27.13179687 49.32851562 -28.3125 49.375 C-29.33988281 49.42398438 -30.36726563 49.47296875 -31.42578125 49.5234375 C-34 49 -34 49 -35.85546875 46.6640625 C-37 44 -37 44 -37 41 C-37.66 41 -38.32 41 -39 41 C-39.83819158 39.37750059 -40.6704116 37.75191503 -41.5 36.125 C-41.9640625 35.22007812 -42.428125 34.31515625 -42.90625 33.3828125 C-44 31 -44 31 -44 29 C-44.66 29 -45.32 29 -46 29 C-45.43450607 25.06946815 -44.28617442 22.46592463 -42.0625 19.1875 C-41.53785156 18.39730469 -41.01320313 17.60710937 -40.47265625 16.79296875 C-39.98667969 16.20128906 -39.50070313 15.60960937 -39 15 C-38.34 15 -37.68 15 -37 15 C-36.896875 14.278125 -36.79375 13.55625 -36.6875 12.8125 C-35.93206053 9.72206579 -34.84468685 7.58256159 -33 5 C-32.34 5 -31.68 5 -31 5 C-30.82082031 4.35546875 -30.64164063 3.7109375 -30.45703125 3.046875 C-29 1 -29 1 -25.76171875 0.390625 C-24.40451412 0.32313504 -23.04610195 0.27756903 -21.6875 0.25 C-20.97851562 0.22107666 -20.26953125 0.19215332 -19.5390625 0.16235352 C-13.02934327 -0.07710284 -6.51281673 -0.10036875 0 0 Z " fill="#CCD3D9" transform="translate(85,113)"/>
<path d="M0 0 C5.75317623 1.43829406 9.47373799 4.36338259 14 8 C14.87140625 8.66257812 15.7428125 9.32515625 16.640625 10.0078125 C23.46406844 15.32552401 28.77461552 21.12882513 34 28 C34.53109375 28.65484375 35.0621875 29.3096875 35.609375 29.984375 C53.07842366 51.96156525 59.57409385 80.84094478 56.74511719 108.49121094 C54.81247998 123.43175305 50.23492731 136.38832736 44 150 C43.69835937 150.78117188 43.39671875 151.56234375 43.0859375 152.3671875 C41.5097945 154.73707158 39.89421425 155.01955238 37.1875 155.75 C36.33542969 155.99234375 35.48335937 156.2346875 34.60546875 156.484375 C31.99790956 157.0004137 29.65039081 157.09516664 27 157 C24.54038112 147.77642919 25.89037997 141.5382359 30.40234375 133.29296875 C40.12476 113.25385653 39.70323346 86.83627463 33 66 C32.73445313 65.11183594 32.46890625 64.22367187 32.1953125 63.30859375 C25.90203202 45.11801637 11.8584516 29.23198452 -4.3125 19.26171875 C-5.1478125 18.63716797 -5.1478125 18.63716797 -6 18 C-6 17.34 -6 16.68 -6 16 C-1.38 16 3.24 16 8 16 C8 13.36 8 10.72 8 8 C6.2984375 8.0309375 6.2984375 8.0309375 4.5625 8.0625 C1 8 1 8 0 7 C-0.04092937 4.66702567 -0.04241723 2.33294775 0 0 Z " fill="#EE750A" transform="translate(168,16)"/>
<path d="M0 0 C34.65 0 69.3 0 105 0 C105 33.66 105 67.32 105 102 C104.67 102 104.34 102 104 102 C103.86464844 101.01644531 103.72929687 100.03289062 103.58984375 99.01953125 C100.03591174 75.31312344 91.61163284 56.08919598 76 38 C75.34128906 37.14019531 74.68257813 36.28039063 74.00390625 35.39453125 C72.06248723 33.07466798 70.22696375 31.52343977 67.75 29.8125 C65.609375 28.33203125 65.609375 28.33203125 64 27 C64 26.34 64 25.68 64 25 C63.26265625 24.73445313 62.5253125 24.46890625 61.765625 24.1953125 C59.03272382 23.01414335 57.09564772 21.68908007 54.75 19.875 C38.58905655 8.36572277 19.54606286 2.74147103 0 1 C0 0.67 0 0.34 0 0 Z " fill="#FEFEFD" transform="translate(120,0)"/>
<path d="M0 0 C0.33 0 0.66 0 1 0 C1.10546143 0.58378418 1.21092285 1.16756836 1.31958008 1.76904297 C1.81136589 4.47213048 2.31189125 7.17353314 2.8125 9.875 C2.97814453 10.7928125 3.14378906 11.710625 3.31445312 12.65625 C5.170201 22.60025748 7.82213909 31.44891081 12.625 40.375 C13.06811523 41.20153076 13.51123047 42.02806152 13.96777344 42.87963867 C28.18371521 68.84833887 51.55078064 87.70693752 79.86303711 96.35742188 C87.13233625 98.44726789 94.5427573 99.78026482 102 101 C102 101.33 102 101.66 102 102 C68.34 102 34.68 102 0 102 C0 68.34 0 34.68 0 0 Z " fill="#FDFCFD" transform="translate(0,123)"/>
<path d="M0 0 C0.99 0 1.98 0 3 0 C2.67 2.64 2.34 5.28 2 8 C5.96 8 9.92 8 14 8 C12.6 13.6 12.6 13.6 11 16 C8.375 17.25 8.375 17.25 6 18 C6 18.66 6 19.32 6 20 C5.34 20.33 4.68 20.66 4 21 C3.67 21.99 3.34 22.98 3 24 C-0.5625 25.1875 -0.5625 25.1875 -4 26 C-4.0825 26.92167969 -4.165 27.84335938 -4.25 28.79296875 C-5.36280015 33.55134857 -7.78214715 34.53058311 -11.75 37.078125 C-36.10861696 51.48249945 -64.28017497 61.59067238 -93 56 C-93 53.33333333 -93 50.66666667 -93 48 C-94.175625 48.185625 -95.35125 48.37125 -96.5625 48.5625 C-103.383293 49.34951458 -110.186936 48.58346398 -117 48 C-117.33 45.69 -117.66 43.38 -118 41 C-120.475 41.495 -120.475 41.495 -123 42 C-123 41.67 -123 41.34 -123 41 C-123.62648438 41.02320313 -124.25296875 41.04640625 -124.8984375 41.0703125 C-125.71570313 41.08835938 -126.53296875 41.10640625 -127.375 41.125 C-128.18710938 41.14820313 -128.99921875 41.17140625 -129.8359375 41.1953125 C-132 41 -132 41 -134 39 C-134.125 35.875 -134.125 35.875 -134 33 C-137.96 32.505 -137.96 32.505 -142 32 C-142.125 29.125 -142.125 29.125 -142 26 C-138.80559308 22.80559308 -135.04237374 22.89530251 -130.6875 22.625 C-126.24882886 22.68302184 -124.0483777 23.98504421 -120.5 26.49609375 C-117.1336036 28.52119158 -113.61608953 29.83295944 -109.9375 31.1875 C-108.92804321 31.56189209 -108.92804321 31.56189209 -107.89819336 31.94384766 C-83.1762158 40.91331377 -58.67041332 37.74653691 -34.8684082 27.70849609 C-32.93432666 26.97509682 -31.01442713 26.4626569 -29 26 C-29 25.34 -29 24.68 -29 24 C-26.8046875 22.34375 -26.8046875 22.34375 -23.875 20.5 C-22.44800781 19.58734375 -22.44800781 19.58734375 -20.9921875 18.65625 C-17.4249218 16.68167995 -13.9436858 15.22866892 -9.875 14.75 C-6.82700164 13.53080066 -5.75241051 10.68337859 -4 8 C-1.75 6.625 -1.75 6.625 0 6 C-0.185625 5.38125 -0.37125 4.7625 -0.5625 4.125 C-1 2 -1 2 0 0 Z " fill="#BE5395" transform="translate(189,168)"/>
<path d="M0 0 C10.03411669 -0.17707265 19.99112106 0.37722531 30 1 C30.66 2.32 31.32 3.64 32 5 C32.66 5 33.32 5 34 5 C34.36351562 5.67804688 34.72703125 6.35609375 35.1015625 7.0546875 C35.60429688 7.98539062 36.10703125 8.91609375 36.625 9.875 C37.16511719 10.8753125 37.70523438 11.875625 38.26171875 12.90625 C40.34641383 16.61653877 42.63449724 20.17150212 44.99609375 23.7109375 C46.30104305 26.68642501 46.03435725 27.93867361 45 31 C43.94029375 32.9944215 42.80893791 34.95172533 41.625 36.875 C37.8351286 43.21301057 37.8351286 43.21301057 35 50 C35.33 50.99 35.66 51.98 36 53 C35.01 53 34.02 53 33 53 C33 52.01 33 51.02 33 50 C32.16339844 49.99701904 31.32679687 49.99403809 30.46484375 49.9909668 C27.3236443 49.95378898 24.18843961 49.86776517 21.04931641 49.74975586 C19.03756875 49.6886413 17.02438845 49.68266256 15.01171875 49.67773438 C5.39052524 49.26677887 5.39052524 49.26677887 1.3828125 45.61572266 C-0.66458128 42.82352377 -2.36896952 40.05108843 -4 37 C-6.33696073 33.01725713 -8.9106298 29.58173243 -11.890625 26.0625 C-13 24 -13 24 -12.95703125 21.76953125 C-11.58406156 17.79632507 -9.5512896 14.30975201 -7.4375 10.6875 C-7.01275391 9.94693359 -6.58800781 9.20636719 -6.15039062 8.44335938 C-5.10648347 6.62531882 -4.05407808 4.81216252 -3 3 C-2.34 3 -1.68 3 -1 3 C-0.67 2.01 -0.34 1.02 0 0 Z " fill="#CCD3D9" transform="translate(52,63)"/>
<path d="M0 0 C3.95522776 -0.11445997 7.88835267 -0.08334609 11.84375 0.01074219 C14.04547206 -0.00022654 16.18382544 -0.19155799 18.375 -0.3984375 C23.34709943 -0.63311366 27.58913704 -0.50596002 32 2 C38.46775846 8.40310726 44.98380047 17.35885023 48 26 C47.31591797 28.57763672 47.31591797 28.57763672 46 31 C45.62214355 31.73259033 45.24428711 32.46518066 44.85498047 33.2199707 C44.44650879 33.94788818 44.03803711 34.67580566 43.6171875 35.42578125 C42.95009766 36.61977539 42.95009766 36.61977539 42.26953125 37.83789062 C41.80933594 38.65451172 41.34914062 39.47113281 40.875 40.3125 C40.40707031 41.14845703 39.93914062 41.98441406 39.45703125 42.84570312 C38.3073741 44.89866233 37.15496198 46.95002202 36 49 C31.33229885 49.06563955 26.66763393 49.05617148 22 49 C20.93434814 48.99129883 20.93434814 48.99129883 19.84716797 48.98242188 C17.70889743 48.95346764 15.57459346 48.88779527 13.4375 48.8125 C12.13683594 48.77769531 10.83617187 48.74289063 9.49609375 48.70703125 C4.20056422 47.63609176 2.19409509 44.70216579 -0.80859375 40.421875 C-1.34613281 39.54015625 -1.88367188 38.6584375 -2.4375 37.75 C-5.13177264 33.34658525 -7.99953145 29.1751782 -11.12890625 25.0703125 C-12 23 -12 23 -11.47265625 20.82421875 C-9.3421437 16.73838169 -7.1372233 12.70183742 -4.875 8.6875 C-4.40707031 7.85154297 -3.93914062 7.01558594 -3.45703125 6.15429688 C-2.3073741 4.10133767 -1.15496198 2.04997798 0 0 Z " fill="#E43315" transform="translate(138,113)"/>
<path d="M0 0 C1.95838247 0.01554272 3.91676084 0.03416535 5.875 0.0625 C5.875 1.0525 5.875 2.0425 5.875 3.0625 C6.535 3.0625 7.195 3.0625 7.875 3.0625 C9.37141309 5.78413157 10.86092779 8.50887567 12.3359375 11.2421875 C13.45291711 13.28903846 14.61847327 15.30961646 15.8125 17.3125 C17.26231778 21.06496955 16.97615511 23.20845711 15.875 27.0625 C13.5 30.1875 13.5 30.1875 10.875 33.0625 C10.318125 34.01125 9.76125 34.96 9.1875 35.9375 C8.754375 36.63875 8.32125 37.34 7.875 38.0625 C7.215 38.0625 6.555 38.0625 5.875 38.0625 C5.7925 38.59875 5.71 39.135 5.625 39.6875 C4.56002742 43.05991317 3.11221955 45.31489252 0.875 48.0625 C-2.28540039 48.99072266 -2.28540039 48.99072266 -5.97265625 49.2265625 C-6.62576279 49.2719516 -7.27886932 49.3173407 -7.95176697 49.36410522 C-9.32680539 49.45296717 -10.70281502 49.52778953 -12.0793457 49.58935547 C-14.18783225 49.68751547 -16.28779853 49.83836426 -18.39257812 49.99609375 C-25.93972749 50.44683655 -25.93972749 50.44683655 -29.125 50.0625 C-31.04467773 48.23974609 -31.04467773 48.23974609 -32.125 46.0625 C-32.125 45.0725 -32.125 44.0825 -32.125 43.0625 C-32.785 43.0625 -33.445 43.0625 -34.125 43.0625 C-34.558125 41.99 -34.99125 40.9175 -35.4375 39.8125 C-36.40282676 37.50950616 -37.15488141 36.02819172 -38.8125 34.125 C-40.91446025 30.8219196 -40.90333642 27.7740712 -40.125 24.0625 C-38.92165021 21.48389331 -37.52094237 19.22177753 -35.921875 16.8671875 C-34.00643458 14.03408006 -34.00643458 14.03408006 -32.578125 10.5703125 C-30.7488221 6.73548945 -29.19402261 4.01654482 -26.125 1.0625 C-21.0974168 -0.71621175 -15.67626095 -0.32310692 -10.42578125 -0.04882812 C-6.94659359 0.11951966 -3.48274235 0.04247247 0 0 Z " fill="#CCD3D9" transform="translate(168.125,62.9375)"/>
<path d="M0 0 C1.67316284 0.0314209 1.67316284 0.0314209 3.38012695 0.06347656 C4.58862305 0.07636719 5.79711914 0.08925781 7.04223633 0.10253906 C8.30487305 0.13605469 9.56750977 0.16957031 10.8684082 0.20410156 C12.14264648 0.22214844 13.41688477 0.24019531 14.72973633 0.25878906 C17.88087662 0.30599716 21.03051961 0.37183772 24.1809082 0.45410156 C24.1809082 1.11410156 24.1809082 1.77410156 24.1809082 2.45410156 C24.8409082 2.45410156 25.5009082 2.45410156 26.1809082 2.45410156 C27.1574707 4.17936198 28.1340332 5.9046224 29.1105957 7.62988281 C30.07519401 9.27392446 31.12357879 10.86810745 32.1809082 12.45410156 C32.1809082 13.77410156 32.1809082 15.09410156 32.1809082 16.45410156 C32.8409082 16.45410156 33.5009082 16.45410156 34.1809082 16.45410156 C35.86963217 19.04443239 36.74033346 20.45661984 37.1809082 23.45410156 C35.92853469 27.38004695 33.84060319 30.71275608 31.6809082 34.20410156 C31.13692383 35.14898437 30.59293945 36.09386719 30.0324707 37.06738281 C27.23286607 41.77580879 25.26447069 45.04972666 20.1809082 47.45410156 C12.93375784 48.73844158 4.24150541 48.56993593 -2.8190918 46.45410156 C-7.06277942 43.28005905 -8.36637214 38.36243948 -9.8190918 33.45410156 C-10.4790918 32.46410156 -11.1390918 31.47410156 -11.8190918 30.45410156 C-11.8190918 29.46410156 -11.8190918 28.47410156 -11.8190918 27.45410156 C-12.4790918 27.45410156 -13.1390918 27.45410156 -13.8190918 27.45410156 C-16.02887666 23.14922655 -16.02887666 23.14922655 -15.09643555 20.05957031 C-14.65428711 19.26164062 -14.21213867 18.46371094 -13.7565918 17.64160156 C-13.28350586 16.77664062 -12.81041992 15.91167969 -12.32299805 15.02050781 C-10.22894308 11.44701661 -8.1414654 7.88522127 -5.8190918 4.45410156 C-5.4269751 3.76525879 -5.0348584 3.07641602 -4.63085938 2.36669922 C-2.8190918 0.45410156 -2.8190918 0.45410156 0 0 Z " fill="#FDFDFD" transform="translate(101.819091796875,89.5458984375)"/>
<path d="M0 0 C0.39770223 2.33650061 0.7197274 4.64833774 1 7 C1.103125 7.64066406 1.20625 8.28132813 1.3125 8.94140625 C1.80525592 14.35145559 0.1428578 18.24084425 -2.25 23 C-8.78220763 36.05945912 -10.6105074 49.53034975 -11 64 C-11.33 64 -11.66 64 -12 64 C-12.06058594 63.13117188 -12.12117188 62.26234375 -12.18359375 61.3671875 C-12.30927734 59.63855469 -12.30927734 59.63855469 -12.4375 57.875 C-12.51871094 56.73804688 -12.59992187 55.60109375 -12.68359375 54.4296875 C-12.97730965 51.2459522 -13.43124313 48.14489093 -14 45 C-16.64 45.33 -19.28 45.66 -22 46 C-22.66 49.63 -23.32 53.26 -24 57 C-24.33 56.34 -24.66 55.68 -25 55 C-25.66 55 -26.32 55 -27 55 C-27.66 60.61 -28.32 66.22 -29 72 C-29.33 72 -29.66 72 -30 72 C-30.42108368 48.95052717 -30.42108368 48.95052717 -28 39 C-27.77401123 38.01749268 -27.77401123 38.01749268 -27.54345703 37.01513672 C-25.51585387 28.33793012 -22.93495397 20.10343883 -19.0625 12.0625 C-18.75103027 11.39444336 -18.43956055 10.72638672 -18.11865234 10.03808594 C-15.83756606 5.56887664 -13.65419801 3.76896123 -9 2 C-2.68421053 0 -2.68421053 0 0 0 Z " fill="#208FCC" transform="translate(30,51)"/>
<path d="M0 0 C5.75317623 1.43829406 9.47373799 4.36338259 14 8 C14.87140625 8.66257812 15.7428125 9.32515625 16.640625 10.0078125 C23.46406844 15.32552401 28.77461552 21.12882513 34 28 C34.53109375 28.65484375 35.0621875 29.3096875 35.609375 29.984375 C43.23449371 39.57726628 48.26543488 49.79371014 52.0625 61.375 C52.37372803 62.30199707 52.68495605 63.22899414 53.00561523 64.18408203 C54.7900747 69.93636397 55.21181716 74.08633228 54 80 C53.34 80 52.68 80 52 80 C52 79.01 52 78.02 52 77 C51.34 77 50.68 77 50 77 C49.505 78.485 49.505 78.485 49 80 C48.93941406 79.10539062 48.87882812 78.21078125 48.81640625 77.2890625 C48.32367008 70.17850052 47.76742182 63.08640578 47 56 C44.69 56 42.38 56 40 56 C40 50.72 40 45.44 40 40 C38.02 40 36.04 40 34 40 C33.01 39.505 33.01 39.505 32 39 C32 36.69 32 34.38 32 32 C28.62182575 31.15545644 26.32534757 30.89155081 23 32 C23.33 32.99 23.66 33.98 24 35 C24.06802967 36.72795352 24.08495645 38.45835365 24.0625 40.1875 C24.05347656 41.08855469 24.04445312 41.98960938 24.03515625 42.91796875 C24.02355469 43.60503906 24.01195312 44.29210938 24 45 C25.485 45.495 25.485 45.495 27 46 C27 46.66 27 47.32 27 48 C28.65 48.33 30.3 48.66 32 49 C32 51.64 32 54.28 32 57 C31.01 57.495 31.01 57.495 30 58 C29.38253906 56.88882813 28.76507813 55.77765625 28.12890625 54.6328125 C19.81261189 39.9229325 10.20627484 28.21332824 -4.3125 19.26171875 C-5.1478125 18.63716797 -5.1478125 18.63716797 -6 18 C-6 17.34 -6 16.68 -6 16 C-1.38 16 3.24 16 8 16 C8 13.36 8 10.72 8 8 C6.2984375 8.0309375 6.2984375 8.0309375 4.5625 8.0625 C1 8 1 8 0 7 C-0.04092937 4.66702567 -0.04241723 2.33294775 0 0 Z " fill="#F1A80D" transform="translate(168,16)"/>
<path d="M0 0 C3.12327507 2.93398567 5.78606315 5.95620077 8.375 9.375 C14.04917252 16.74168321 20.203941 22.07488754 27.83984375 27.3984375 C28.90912109 28.19121094 28.90912109 28.19121094 30 29 C30 29.33 30 29.66 30 30 C29.40832031 29.97679687 28.81664063 29.95359375 28.20703125 29.9296875 C21.78643527 29.63722103 21.78643527 29.63722103 16 32 C15.10169161 35.05272465 15.10169161 35.05272465 15 38 C17.97 38 20.94 38 24 38 C24 40.31 24 42.62 24 45 C26.37901175 46.18950588 27.85517878 46.10114187 30.5 46.0625 C31.2940625 46.05347656 32.088125 46.04445312 32.90625 46.03515625 C33.5971875 46.02355469 34.288125 46.01195312 35 46 C37 46 37 46 40 47 C40 49.31 40 51.62 40 54 C47.92 54 55.84 54 64 54 C64 55.65 64 57.3 64 59 C64.66 59.33 65.32 59.66 66 60 C65 61 65 61 61.84375 61.1640625 C41.74445081 60.30616558 20.66903117 48.15466277 6 35 C6.33 33.35 6.66 31.7 7 30 C9.97 30 12.94 30 16 30 C16 27.36 16 24.72 16 22 C13.36 22 10.72 22 8 22 C7.67 19.36 7.34 16.72 7 14 C6.01 14 5.02 14 4 14 C2.68 13.67 1.36 13.34 0 13 C0 8.71 0 4.42 0 0 Z " fill="#5D2579" transform="translate(32,162)"/>
<path d="M0 0 C0.66 0 1.32 0 2 0 C2.19834763 4.46549183 2.3431785 8.92863025 2.43945312 13.3972168 C2.47959307 14.91557479 2.5341233 16.43362522 2.60351562 17.95092773 C2.8169207 22.73841954 2.91694313 27.28132975 2 32 C0.04136899 34.08554244 -1.59283296 34.95745223 -4.20556641 36.07202148 C-4.79772949 36.37825439 -5.38989258 36.6844873 -6 37 C-6.92249626 40.03473905 -6.92249626 40.03473905 -6.4375 43.1875 C-5.97555792 48.95111583 -5.97555792 48.95111583 -7 51 C-2.545 50.505 -2.545 50.505 2 50 C2 45.05 2 40.1 2 35 C4.64 35 7.28 35 10 35 C9.98952637 34.37955811 9.97905273 33.75911621 9.96826172 33.11987305 C9.92669114 30.30912323 9.90067067 27.4984381 9.875 24.6875 C9.85824219 23.71103516 9.84148437 22.73457031 9.82421875 21.72851562 C9.81777344 20.79072266 9.81132812 19.85292969 9.8046875 18.88671875 C9.79421387 18.02264404 9.78374023 17.15856934 9.77294922 16.26831055 C10 14 10 14 12 11 C14.625 10.8125 14.625 10.8125 17 11 C18.07137638 24.39220472 11.52846037 37.1532992 6 49 C5.69964844 49.77601563 5.39929688 50.55203125 5.08984375 51.3515625 C3.51320349 53.73630153 1.90650076 54.01623668 -0.8125 54.75 C-1.66457031 54.99234375 -2.51664063 55.2346875 -3.39453125 55.484375 C-6.00209044 56.0004137 -8.34960919 56.09516664 -11 56 C-13.46546832 46.75449379 -12.08508517 40.53467339 -7.59375 32.26171875 C-2.72238579 22.29213758 -1.27853028 10.91797565 0 0 Z " fill="#E53617" transform="translate(206,117)"/>
<path d="M0 0 C0.495 0.99 0.495 0.99 1 2 C-20.96232866 2.18890451 -20.96232866 2.18890451 -29.80859375 1.15234375 C-32.11038022 0.99232651 -34.15663875 1.17297997 -36.4375 1.5 C-39.57060604 1.93973418 -41.09040907 1.9310691 -44 1 C-44.33 1.33 -44.66 1.66 -45 2 C-48.46844036 2.06071668 -51.92282182 2.02072721 -55.390625 1.9609375 C-60.0485833 1.91224804 -64.40534038 2.22000473 -69 3 C-69 1.68 -69 0.36 -69 -1 C-47.83497805 -8.31509975 -20.9258716 -8.7964255 0 0 Z " fill="#1D9F48" transform="translate(149,6)"/>
<path d="M0 0 C8.86201375 2.21550344 15.37455697 9.04414962 22 15 C21.67 15.99 21.34 16.98 21 18 C20.01 18.33 19.02 18.66 18 19 C15.54209963 24.27993412 14.63865028 28.21840447 15 34 C11.59341122 31.66214495 8.51061829 29.52405561 5.625 26.5625 C2.60645281 23.61582298 -0.63027347 21.54343614 -4.20703125 19.33203125 C-4.79871094 18.89246094 -5.39039063 18.45289062 -6 18 C-6 17.34 -6 16.68 -6 16 C-1.38 16 3.24 16 8 16 C8 13.36 8 10.72 8 8 C6.2984375 8.0309375 6.2984375 8.0309375 4.5625 8.0625 C1 8 1 8 0 7 C-0.04092937 4.66702567 -0.04241723 2.33294775 0 0 Z " fill="#A4A316" transform="translate(168,16)"/>
<path d="M0 0 C1.38671875 1.62890625 1.38671875 1.62890625 2.6875 3.5625 C3.34298828 4.52349609 3.34298828 4.52349609 4.01171875 5.50390625 C4.33785156 5.99761719 4.66398437 6.49132813 5 7 C3.68 7 2.36 7 1 7 C1.061875 8.1446875 1.061875 8.1446875 1.125 9.3125 C1 12 1 12 -1 15 C-1.24246783 18.20379124 -1.24246783 18.20379124 -1.125 21.6875 C-1.09792969 23.45673828 -1.09792969 23.45673828 -1.0703125 25.26171875 C-1.04710937 26.16535156 -1.02390625 27.06898437 -1 28 C-0.01 28.33 0.98 28.66 2 29 C2 29.66 2 30.32 2 31 C3.65 31.33 5.3 31.66 7 32 C7 34.64 7 37.28 7 40 C6.01 40.495 6.01 40.495 5 41 C4.72325439 40.51644043 4.44650879 40.03288086 4.16137695 39.53466797 C2.88438381 37.31129136 1.59852442 35.0931641 0.3125 32.875 C-0.12255859 32.11445312 -0.55761719 31.35390625 -1.00585938 30.5703125 C-3.06850128 27.02562418 -5.09704062 23.76120323 -7.83203125 20.6953125 C-10 18 -10 18 -10 14 C-10.66 13.67 -11.32 13.34 -12 13 C-11.34 13 -10.68 13 -10 13 C-10 12.01 -10 11.02 -10 10 C-10.66 9.67 -11.32 9.34 -12 9 C-11.01 9 -10.02 9 -9 9 C-8.9071875 7.3603125 -8.9071875 7.3603125 -8.8125 5.6875 C-8 2 -8 2 -5.625 0 C-3 -1 -3 -1 0 0 Z " fill="#D1A60E" transform="translate(193,33)"/>
<path d="M0 0 C4 0 4 0 7 1 C8 2 8 2 8.1875 4.875 C8 8 8 8 6 11 C6.66 11 7.32 11 8 11 C8 12.65 8 14.3 8 16 C9.32 16 10.64 16 12 16 C12 16.66 12 17.32 12 18 C13.32 18 14.64 18 16 18 C16.33 19.98 16.66 21.96 17 24 C17.78375 24.144375 18.5675 24.28875 19.375 24.4375 C22 25 22 25 24 26 C24 26.99 24 27.98 24 29 C23.34 29 22.68 29 22 29 C22 29.99 22 30.98 22 32 C25.3 32.33 28.6 32.66 32 33 C32 41 32 41 30.5 42.6875 C30.005 43.120625 29.51 43.55375 29 44 C16.34440368 32.23703978 6.04069002 19.40317454 0 3 C0 2.01 0 1.02 0 0 Z " fill="#2E2B70" transform="translate(8,152)"/>
<path d="M0 0 C0.99 0.33 1.98 0.66 3 1 C3.6875 3.0625 3.6875 3.0625 4 5 C4.69867188 5 5.39734375 5 6.1171875 5 C16 5 16 5 19 6 C19 8.31 19 10.62 19 13 C26.92 13 34.84 13 43 13 C43 14.65 43 16.3 43 18 C43.66 18.33 44.32 18.66 45 19 C44 20 44 20 40.84375 20.1640625 C27.74789808 19.60509321 10.43913696 12.93374409 0 5 C-0.7578125 2.9140625 -0.7578125 2.9140625 -1 1 C-0.67 0.67 -0.34 0.34 0 0 Z " fill="#841C7C" transform="translate(53,203)"/>
<path d="M0 0 C0.598125 0.165 1.19625 0.33 1.8125 0.5 C4.11344336 1.1114124 4.11344336 1.1114124 7 1 C7.66 1.66 8.32 2.32 9 3 C8.67 3.99 8.34 4.98 8 6 C7.01 6.33 6.02 6.66 5 7 C2.54209963 12.27993412 1.63865028 16.21840447 2 22 C0.87043002 21.23587913 -0.25348978 20.46340197 -1.375 19.6875 C-2.00148437 19.25824219 -2.62796875 18.82898438 -3.2734375 18.38671875 C-5 17 -5 17 -7 14 C-7 13.01 -7 12.02 -7 11 C-7.66 11 -8.32 11 -9 11 C-9.33 10.01 -9.66 9.02 -10 8 C-8.35 7.67 -6.7 7.34 -5 7 C-4.67 6.01 -4.34 5.02 -4 4 C-2.68 4 -1.36 4 0 4 C0 2.68 0 1.36 0 0 Z " fill="#B7A413" transform="translate(181,28)"/>
<path d="M0 0 C2.66015625 1.0703125 2.66015625 1.0703125 3.66015625 3.0703125 C-18.40560349 3.26010665 -18.40560349 3.26010665 -27.171875 2.21484375 C-29.38668831 2.06718953 -31.22514868 2.29751458 -33.40234375 2.6953125 C-38.56704001 3.18718833 -42.52185707 1.81781996 -47.33984375 0.0703125 C-47.33984375 -0.2596875 -47.33984375 -0.5896875 -47.33984375 -0.9296875 C-46.12868896 -0.96727173 -46.12868896 -0.96727173 -44.89306641 -1.00561523 C-41.25015458 -1.12134237 -37.60751649 -1.24417385 -33.96484375 -1.3671875 C-32.05832031 -1.42616211 -32.05832031 -1.42616211 -30.11328125 -1.48632812 C-28.29570313 -1.54916992 -28.29570313 -1.54916992 -26.44140625 -1.61328125 C-24.76038818 -1.66826782 -24.76038818 -1.66826782 -23.04541016 -1.72436523 C-9.00092851 -2.7901845 -9.00092851 -2.7901845 0 0 Z " fill="#0E9C3A" transform="translate(146.33984375,4.9296875)"/>
<path d="M0 0 C0.72832031 0.00515625 1.45664063 0.0103125 2.20703125 0.015625 C7.56470238 0.09485119 7.56470238 0.09485119 9.875 1.25 C12.82413777 1.38107279 15.47656507 1.32968699 18.375 0.75 C21.25281883 0.17443623 23.94771757 0.18192366 26.875 0.25 C26.875 0.91 26.875 1.57 26.875 2.25 C28.525 1.59 30.175 0.93 31.875 0.25 C31.875 2.89 31.875 5.53 31.875 8.25 C28.82366993 7.77279951 25.82380188 7.23796877 22.81640625 6.53125 C11.23848008 3.85427285 -0.28319868 3.52933873 -12.125 3.25 C-8.17289721 -0.06989783 -5.00619345 -0.14328997 0 0 Z " fill="#42A038" transform="translate(112.125,15.75)"/>
<path d="M0 0 C0.66 0 1.32 0 2 0 C2.19834763 4.46549183 2.3431785 8.92863025 2.43945312 13.3972168 C2.47959307 14.91557479 2.5341233 16.43362522 2.60351562 17.95092773 C3.1649539 30.54613488 3.1649539 30.54613488 0.2890625 34.13525391 C-2.92798474 36.2232413 -5.15316392 37 -9 37 C-8.7215625 36.175 -8.443125 35.35 -8.15625 34.5 C-4.37881796 23.06561112 -1.27621561 12.01928432 0 0 Z " fill="#E64416" transform="translate(206,117)"/>
<path d="M0 0 C0.99 0.33 1.98 0.66 3 1 C2.67 1.66 2.34 2.32 2 3 C1.9283265 5.55157655 1.90691558 8.07472971 1.9375 10.625 C1.94426758 11.68460938 1.94426758 11.68460938 1.95117188 12.765625 C1.96296125 14.51045275 1.98089676 16.255237 2 18 C3.32 18.33 4.64 18.66 6 19 C5.34 19 4.68 19 4 19 C4 19.66 4 20.32 4 21 C2.02 21 0.04 21 -2 21 C-2 18.69 -2 16.38 -2 14 C-2.99 14.33 -3.98 14.66 -5 15 C-4.6875 12.625 -4.6875 12.625 -4 10 C-3.01 9.34 -2.02 8.68 -1 8 C-0.83333333 5 -0.83333333 5 -1 2 C-0.67 1.34 -0.34 0.68 0 0 Z M-6 15 C-5.01 16.32 -4.02 17.64 -3 19 C-3.33 19.66 -3.66 20.32 -4 21 C-4.598125 21.0825 -5.19625 21.165 -5.8125 21.25 C-8.35465207 21.87420861 -8.35465207 21.87420861 -10 25 C-12 28 -12 28 -14.0625 28.9375 C-16 29 -16 29 -19 28 C-18.34 28 -17.68 28 -17 28 C-16.7525 27.443125 -16.505 26.88625 -16.25 26.3125 C-13.66854853 21.53681479 -10.31771677 18.23828758 -6 15 Z " fill="#F9E2DE" transform="translate(193,155)"/>
<path d="M0 0 C1.98 0 3.96 0 6 0 C1.87873329 4.63851071 -2.68594436 7.33403758 -8.125 10.25 C-8.93582031 10.69601563 -9.74664062 11.14203125 -10.58203125 11.6015625 C-13.71039214 13.30794117 -16.61172627 14.87057542 -20 16 C-20.33 15.01 -20.66 14.02 -21 13 C-20.67 12.34 -20.34 11.68 -20 11 C-21.32 10.67 -22.64 10.34 -24 10 C-20.22777911 8.24836544 -17.333361 7.77509973 -13.1875 7.875 C-11.72376953 7.90207031 -11.72376953 7.90207031 -10.23046875 7.9296875 C-9.49441406 7.95289063 -8.75835937 7.97609375 -8 8 C-8.020625 7.030625 -8.04125 6.06125 -8.0625 5.0625 C-8 2 -8 2 -7 1 C-4.66702567 0.95907063 -2.33294775 0.95758277 0 1 C0 0.67 0 0.34 0 0 Z " fill="#E07E9B" transform="translate(176,200)"/>
<path d="M0 0 C0.66 0.33 1.32 0.66 2 1 C1.67 2.32 1.34 3.64 1 5 C1.66 5 2.32 5 3 5 C3 5.66 3 6.32 3 7 C1.576875 7.0928125 1.576875 7.0928125 0.125 7.1875 C-0.90625 7.455625 -1.9375 7.72375 -3 8 C-4.45291273 10.46255685 -4.45291273 10.46255685 -5 13 C-5.99 12.67 -6.98 12.34 -8 12 C-8.66 12 -9.32 12 -10 12 C-10.66 13.32 -11.32 14.64 -12 16 C-16.62 16 -21.24 16 -26 16 C-23.68058494 14.45372329 -21.47020248 13.13817172 -19 11.875 C-18.319375 11.52179688 -17.63875 11.16859375 -16.9375 10.8046875 C-15 10 -15 10 -12 10 C-12 9.34 -12 8.68 -12 8 C-10.23596271 6.74163402 -8.41220501 5.5661735 -6.5625 4.4375 C-3.09563564 2.46466077 -3.09563564 2.46466077 0 0 Z " fill="#E58EA5" transform="translate(172,184)"/>
<path d="M0 0 C3.10343929 2.91535206 5.74651597 5.91080557 8.3125 9.3125 C11.84033151 13.94375018 15.79133654 17.98810523 20 22 C19.34 22.66 18.68 23.32 18 24 C17.38125 23.360625 16.7625 22.72125 16.125 22.0625 C14.17402388 19.96116416 14.17402388 19.96116416 12 19 C12.33 19.99 12.66 20.98 13 22 C11.35 22 9.7 22 8 22 C7.67 19.36 7.34 16.72 7 14 C6.01 14 5.02 14 4 14 C2.68 13.67 1.36 13.34 0 13 C0 8.71 0 4.42 0 0 Z " fill="#3A2870" transform="translate(32,162)"/>
<path d="M0 0 C6.93 0 13.86 0 21 0 C17.63679024 4.48427968 15.83902093 4.87146704 10.6875 5.6875 C9.39199219 5.91824219 8.09648438 6.14898438 6.76171875 6.38671875 C4.89966797 6.69029297 4.89966797 6.69029297 3 7 C1.85144531 7.19207031 0.70289062 7.38414063 -0.48046875 7.58203125 C-1.31191406 7.71996094 -2.14335938 7.85789062 -3 8 C-3 6.02 -3 4.04 -3 2 C-2.01 2 -1.02 2 0 2 C0 1.34 0 0.68 0 0 Z " fill="#45AE7D" transform="translate(83,16)"/>
<path d="M0 0 C0.33 0 0.66 0 1 0 C2.18982084 7.41226226 1.67959957 13.69860023 0 21 C-0.33 20.34 -0.66 19.68 -1 19 C-1.66 19 -2.32 19 -3 19 C-3.66 24.61 -4.32 30.22 -5 36 C-5.33 36 -5.66 36 -6 36 C-6.05845196 32.62507371 -6.09374742 29.25027913 -6.125 25.875 C-6.14175781 24.92367187 -6.15851562 23.97234375 -6.17578125 22.9921875 C-6.21104528 17.91416745 -6.03333617 13.75512475 -4 9 C-3.01 9 -2.02 9 -1 9 C-1.020625 7.700625 -1.04125 6.40125 -1.0625 5.0625 C-1.08399454 3.70834367 -1.07148199 2.35243917 -1 1 C-0.67 0.67 -0.34 0.34 0 0 Z " fill="#3975B1" transform="translate(6,87)"/>
<path d="M0 0 C2.39300292 14.05889213 2.39300292 14.05889213 -1 20 C-1.99 20 -2.98 20 -4 20 C-6.02445293 14.68581107 -6.82333931 10.47001793 -5 5 C-5.99 4.67 -6.98 4.34 -8 4 C-8.33 3.34 -8.66 2.68 -9 2 C-2.25 0 -2.25 0 0 0 Z " fill="#1C9CD7" transform="translate(30,51)"/>
<path d="M0 0 C6.40629424 -0.20852314 11.92972642 -0.1583195 18 2 C18 2.66 18 3.32 18 4 C9.8120867 6.57288185 2.59991888 8.14827446 -6 8 C-5.34 7.67 -4.68 7.34 -4 7 C-4 6.34 -4 5.68 -4 5 C-2.68 5 -1.36 5 0 5 C0.66 3.68 1.32 2.36 2 1 C1.34 0.67 0.68 0.34 0 0 Z " fill="#C53B88" transform="translate(126,216)"/>
<path d="M0 0 C0.66 0 1.32 0 2 0 C2 0.99 2 1.98 2 3 C3.98 2.67 5.96 2.34 8 2 C8 11.9 8 21.8 8 32 C7.67 32 7.34 32 7 32 C6.82984375 30.92363281 6.6596875 29.84726563 6.484375 28.73828125 C5.1167744 20.39754686 3.45279411 12.47109548 0.76953125 4.44140625 C0 2 0 2 0 0 Z " fill="#FCF6F1" transform="translate(217,70)"/>
<path d="M0 0 C0.66 0 1.32 0 2 0 C2.8748448 2.49436719 3.7246767 4.99319712 4.5625 7.5 C4.80935547 8.19609375 5.05621094 8.8921875 5.31054688 9.609375 C7.0300955 14.84067787 7.01811763 18.58629668 6 24 C5.34 24 4.68 24 4 24 C4 23.01 4 22.02 4 21 C3.34 21 2.68 21 2 21 C1.67 21.99 1.34 22.98 1 24 C0.3533402 15.98603754 -0.16677223 8.04212755 0 0 Z " fill="#F38F0C" transform="translate(216,72)"/>
<path d="M0 0 C0 0.66 0 1.32 0 2 C0.99 2.33 1.98 2.66 3 3 C-1.96763748 6.31175832 -6.35155894 7.25394496 -12.2734375 7.1953125 C-14.00400391 7.18564453 -14.00400391 7.18564453 -15.76953125 7.17578125 C-16.95933594 7.15902344 -18.14914063 7.14226562 -19.375 7.125 C-20.58800781 7.11597656 -21.80101562 7.10695312 -23.05078125 7.09765625 C-26.03405773 7.07416588 -29.01692594 7.04131682 -32 7 C-32 6.67 -32 6.34 -32 6 C-30.74445313 5.81824219 -29.48890625 5.63648438 -28.1953125 5.44921875 C-16.3395056 3.7347245 -16.3395056 3.7347245 -4.8125 0.55078125 C-3 0 -3 0 0 0 Z " fill="#FEFCFC" transform="translate(152,218)"/>
<path d="M0 0 C0.33 0 0.66 0 1 0 C1.05851976 4.16660676 1.0937706 8.33310637 1.125 12.5 C1.14175781 13.67304688 1.15851563 14.84609375 1.17578125 16.0546875 C1.21128955 22.37516505 1.08314229 27.99821941 -1 34 C-1.99 34.495 -1.99 34.495 -3 35 C-5.01309637 28.37237293 -4.9934149 23.58212021 -3.1875 16.9375 C-2.80234473 15.42670577 -2.42080238 13.91498565 -2.04296875 12.40234375 C-1.86040527 11.67644043 -1.6778418 10.95053711 -1.48974609 10.20263672 C-0.73793268 6.82135028 -0.36346278 3.44312587 0 0 Z " fill="#FBF6F2" transform="translate(224,122)"/>
<path d="M0 0 C1.4540625 0.0309375 1.4540625 0.0309375 2.9375 0.0625 C2.751875 0.949375 2.56625 1.83625 2.375 2.75 C1.7710476 5.88293473 1.7710476 5.88293473 2.40625 8.21875 C3.13496679 12.11952812 3.04312839 15.91714062 3 19.875 C2.99548828 20.66326172 2.99097656 21.45152344 2.98632812 22.26367188 C2.97461312 24.19664761 2.95667998 26.12958393 2.9375 28.0625 C2.2775 28.0625 1.6175 28.0625 0.9375 28.0625 C0.82792969 27.11890625 0.71835938 26.1753125 0.60546875 25.203125 C-0.32083759 17.70230295 -1.52147761 10.55428574 -3.57421875 3.2578125 C-3.73535156 2.53335938 -3.89648438 1.80890625 -4.0625 1.0625 C-3.0625 0.0625 -3.0625 0.0625 0 0 Z " fill="#EF8105" transform="translate(205.0625,79.9375)"/>
<path d="M0 0 C4.50897678 3.96243414 7.35852026 8.54583848 10.44921875 13.671875 C11.78960222 16.10166576 11.78960222 16.10166576 14 17 C16.71262116 17.2322646 19.40773126 17.41936235 22.125 17.5625 C22.87910156 17.60568359 23.63320312 17.64886719 24.41015625 17.69335938 C26.27321888 17.7994832 28.13658524 17.90025001 30 18 C30 18.33 30 18.66 30 19 C23.3206952 20.72369156 15.67603397 20.60224815 9 19 C6.31036706 16.00137528 4.61083564 12.52085027 2.8125 8.9375 C2.28269531 7.89464844 1.75289062 6.85179687 1.20703125 5.77734375 C0 3 0 3 0 0 Z " fill="#F6EEEB" transform="translate(130,143)"/>
<path d="M0 0 C6.6 0 13.2 0 20 0 C20 1.65 20 3.3 20 5 C20.66 5.33 21.32 5.66 22 6 C21 7 21 7 17.9375 7.1875 C13.64115245 6.98291202 10.12840823 6.15885143 6 5 C6 4.01 6 3.02 6 2 C3.03 1.505 3.03 1.505 0 1 C0 0.67 0 0.34 0 0 Z " fill="#A4157D" transform="translate(76,216)"/>
<path d="M0 0 C1.98 0 3.96 0 6 0 C6.40850553 7.08076251 4.90420731 13.19925959 3 20 C-0.63246924 13.07225276 -1.35295279 7.57653561 0 0 Z " fill="#EA5213" transform="translate(217,128)"/>
<path d="M0 0 C6.0509304 1.16554807 12.03466226 2.45343096 18 4 C18 4.99 18 5.98 18 7 C12.06 7 6.12 7 0 7 C0 4.69 0 2.38 0 0 Z " fill="#931A7C" transform="translate(80,201)"/>
<path d="M0 0 C1.65 1.32 3.3 2.64 5 4 C5.66 3.34 6.32 2.68 7 2 C7.66 2 8.32 2 9 2 C9.75612577 7.23471686 10.2063366 11.77254141 9 17 C8.34 17 7.68 17 7 17 C5.68684387 14.70870707 4.37444807 12.4169845 3.0625 10.125 C2.50272461 9.14853516 2.50272461 9.14853516 1.93164062 8.15234375 C-0.88671875 3.2265625 -0.88671875 3.2265625 -2 1 C-1.34 0.67 -0.68 0.34 0 0 Z " fill="#FAF8F1" transform="translate(206,46)"/>
<path d="M0 0 C4.01330548 0.54233858 7.89549148 1.42764624 11.8125 2.4375 C12.76769531 2.68371094 13.72289062 2.92992187 14.70703125 3.18359375 C17 4 17 4 18 6 C10.74 6 3.48 6 -4 6 C-4 4.68 -4 3.36 -4 2 C-2.68 2 -1.36 2 0 2 C0 1.34 0 0.68 0 0 Z " fill="#2CA03C" transform="translate(132,2)"/>
<path d="M0 0 C0.99 0.33 1.98 0.66 3 1 C3.58360155 7.34666686 4.14491482 13.62374778 4 20 C2 19 2 19 1.0625 17 C0.1108154 14.65391779 0.1108154 14.65391779 -3 14 C-3 10.7 -3 7.4 -3 4 C-2.01 4 -1.02 4 0 4 C0 2.68 0 1.36 0 0 Z " fill="#285195" transform="translate(4,116)"/>
<path d="M0 0 C3.96 0.33 7.92 0.66 12 1 C12 9 12 9 10.5 10.6875 C10.005 11.120625 9.51 11.55375 9 12 C7.49105554 10.57189185 5.99307655 9.13218981 4.5 7.6875 C3.6646875 6.88699219 2.829375 6.08648437 1.96875 5.26171875 C0 3 0 3 0 0 Z " fill="#482374" transform="translate(28,184)"/>
<path d="M0 0 C0.33 0 0.66 0 1 0 C1.33 1.98 1.66 3.96 2 6 C2.33 6 2.66 6 3 6 C2.34 14.58 1.68 23.16 1 32 C0.67 32 0.34 32 0 32 C-0.06058594 31.09636719 -0.12117188 30.19273438 -0.18359375 29.26171875 C-0.26738281 28.08222656 -0.35117187 26.90273437 -0.4375 25.6875 C-0.51871094 24.51574219 -0.59992187 23.34398437 -0.68359375 22.13671875 C-0.8867371 18.97409042 -0.8867371 18.97409042 -2 16 C-2.47683858 10.27793707 -1.84371027 5.4158989 0 0 Z " fill="#2477B6" transform="translate(18,83)"/>
<path d="M0 0 C1.14855469 -0.02578125 2.29710937 -0.0515625 3.48046875 -0.078125 C7.25527352 0.29360255 9.59962359 1.25996946 12.8125 3.25 C13.8025 4.735 13.8025 4.735 14.8125 6.25 C13.8225 7.735 13.8225 7.735 12.8125 9.25 C12.1525 7.6 11.4925 5.95 10.8125 4.25 C9.61753906 4.18941406 8.42257813 4.12882812 7.19140625 4.06640625 C-8.48880573 3.24797889 -8.48880573 3.24797889 -16.1875 2.25 C-16.1875 1.92 -16.1875 1.59 -16.1875 1.25 C-10.78473186 0.5047906 -5.45477037 0.11568972 0 0 Z " fill="#F7F5F4" transform="translate(159.1875,110.75)"/>
<path d="M0 0 C10.23820225 3.20898876 10.23820225 3.20898876 14 6 C14 6.66 14 7.32 14 8 C12.86111328 7.98259766 12.86111328 7.98259766 11.69921875 7.96484375 C10.70535156 7.95582031 9.71148437 7.94679688 8.6875 7.9375 C7.70136719 7.92589844 6.71523437 7.91429687 5.69921875 7.90234375 C2.90036151 7.87670138 2.90036151 7.87670138 0 9 C0 6.03 0 3.06 0 0 Z " fill="#69A228" transform="translate(152,8)"/>
<path d="M0 0 C0 0.66 0 1.32 0 2 C0.66 2.66 1.32 3.32 2 4 C-1.93562763 4.88199565 -5.79142875 5.27818183 -9.8125 5.5625 C-10.97394531 5.64628906 -12.13539062 5.73007813 -13.33203125 5.81640625 C-14.21246094 5.87699219 -15.09289062 5.93757812 -16 6 C-16 4.68 -16 3.36 -16 2 C-5.62642369 -1.62870159 -5.62642369 -1.62870159 0 0 Z " fill="#2AA65D" transform="translate(96,3)"/>
<path d="M0 0 C0.66 0.33 1.32 0.66 2 1 C1.01 1.66 0.02 2.32 -1 3 C-1.38411275 5.609621 -1.60293197 8.0058074 -1.6875 10.625 C-1.72166016 11.33140625 -1.75582031 12.0378125 -1.79101562 12.765625 C-1.87351308 14.50985688 -1.93843335 16.25490395 -2 18 C-2.33 17.34 -2.66 16.68 -3 16 C-3.66 16 -4.32 16 -5 16 C-5 16.66 -5 17.32 -5 18 C-5.66 18 -6.32 18 -7 18 C-8.16796875 15.85546875 -8.16796875 15.85546875 -9 13 C-7.98828125 10.17578125 -7.98828125 10.17578125 -6.3125 7.3125 C-5.77238281 6.35988281 -5.23226563 5.40726563 -4.67578125 4.42578125 C-3 2 -3 2 0 0 Z " fill="#1F9BD6" transform="translate(18,54)"/>
<path d="M0 0 C0 1.65 0 3.3 0 5 C-1.26418246 5.69965443 -2.53665402 6.38434763 -3.8125 7.0625 C-4.52019531 7.44535156 -5.22789063 7.82820313 -5.95703125 8.22265625 C-8 9 -8 9 -11 8 C-11.4021875 8.86625 -11.4021875 8.86625 -11.8125 9.75 C-13.02929189 12.05550043 -14.30333879 14.02056192 -16 16 C-16.66 16 -17.32 16 -18 16 C-17.49396008 13.83125748 -17.00016187 12.00032373 -16 10 C-15.01 10 -14.02 10 -13 10 C-12.7628125 9.40703125 -12.525625 8.8140625 -12.28125 8.203125 C-10.72026654 5.51899491 -9.10023379 4.42157887 -6.5 2.75 C-5.7059375 2.22921875 -4.911875 1.7084375 -4.09375 1.171875 C-2 0 -2 0 0 0 Z " fill="#AEDBDC" transform="translate(56,16)"/>
<path d="M0 0 C0.66 0.66 1.32 1.32 2 2 C1.69069835 7.67053017 0.25691871 12.79382295 -1.30078125 18.234375 C-2.29087225 22.15048912 -2.67033863 25.97813123 -3 30 C-3.33 30 -3.66 30 -4 30 C-4.05819424 26.75007554 -4.09366116 23.50028565 -4.125 20.25 C-4.14175781 19.32960938 -4.15851562 18.40921875 -4.17578125 17.4609375 C-4.18222656 16.57148437 -4.18867187 15.68203125 -4.1953125 14.765625 C-4.20578613 13.94868164 -4.21625977 13.13173828 -4.22705078 12.29003906 C-3.97439781 9.74177581 -3.36134735 8.15880181 -2 6 C-1.34 5.67 -0.68 5.34 0 5 C-0.2784375 4.0409375 -0.2784375 4.0409375 -0.5625 3.0625 C-0.706875 2.381875 -0.85125 1.70125 -1 1 C-0.67 0.67 -0.34 0.34 0 0 Z " fill="#EBF3F7" transform="translate(4,72)"/>
<path d="M0 0 C4.62 0 9.24 0 14 0 C14 0.66 14 1.32 14 2 C4.58997722 6.22323462 4.58997722 6.22323462 0 8 C0 5.36 0 2.72 0 0 Z " fill="#70C2AA" transform="translate(64,24)"/>
<path d="M0 0 C1.98 0 3.96 0 6 0 C2.62546316 3.67229009 -0.37455093 6.08948843 -5 8 C-5.99 8 -6.98 8 -8 8 C-8.04254356 6.00045254 -8.04080783 3.99958364 -8 2 C-7 1 -7 1 -3.4375 0.9375 C-2.303125 0.958125 -1.16875 0.97875 0 1 C0 0.67 0 0.34 0 0 Z " fill="#E89FAD" transform="translate(176,200)"/>
<path d="M0 0 C1.05477539 -0.00483398 1.05477539 -0.00483398 2.13085938 -0.00976562 C6.20372244 0.03222265 9.39939569 0.5132061 13.0625 2.3125 C13.0625 2.6425 13.0625 2.9725 13.0625 3.3125 C4.8125 3.3125 -3.4375 3.3125 -11.9375 3.3125 C-7.53428915 0.01009187 -5.19590477 -0.11841169 0 0 Z " fill="#119B40" transform="translate(111.9375,15.6875)"/>
<path d="M0 0 C4.95 0 9.9 0 15 0 C15 2.31 15 4.62 15 7 C11.14974121 6.39644592 8.13898841 5.23227397 4.6875 3.4375 C3.80449219 2.98246094 2.92148438 2.52742188 2.01171875 2.05859375 C1.34785156 1.70925781 0.68398437 1.35992188 0 1 C0 0.67 0 0.34 0 0 Z " fill="#77A125" transform="translate(145,24)"/>
<path d="M0 0 C3.54164915 -0.0292067 7.08326697 -0.04686814 10.625 -0.0625 C11.62402344 -0.07087891 12.62304688 -0.07925781 13.65234375 -0.08789062 C18.55020275 -0.1041087 23.18656199 -0.04318537 28 1 C26.375 3.0625 26.375 3.0625 24 5 C21.375 4.875 21.375 4.875 18 4 C16.37703612 3.65689019 14.75181395 3.32436474 13.125 3 C12.27421875 2.82726562 11.4234375 2.65453125 10.546875 2.4765625 C7.04290139 1.820911 3.54234479 1.39359387 0 1 C0 0.67 0 0.34 0 0 Z " fill="#E8F4E6" transform="translate(120,0)"/>
<path d="M0 0 C0.33 0 0.66 0 1 0 C2.32 7.59 3.64 15.18 5 23 C4.01 23 3.02 23 2 23 C0 21 0 21 -0.22705078 18.84521484 C-0.21657715 17.97590332 -0.20610352 17.1065918 -0.1953125 16.2109375 C-0.18886719 15.26992187 -0.18242188 14.32890625 -0.17578125 13.359375 C-0.15902344 12.37453125 -0.14226563 11.3896875 -0.125 10.375 C-0.11597656 9.38242188 -0.10695312 8.38984375 -0.09765625 7.3671875 C-0.07404116 4.91121866 -0.04110799 2.45572832 0 0 Z " fill="#EEF1F6" transform="translate(0,123)"/>
<path d="M0 0 C7.59 0 15.18 0 23 0 C23 0.33 23 0.66 23 1 C22.17592651 1.12846313 22.17592651 1.12846313 21.33520508 1.25952148 C18.82746392 1.65108339 16.31998123 2.0442772 13.8125 2.4375 C12.94818359 2.57220703 12.08386719 2.70691406 11.19335938 2.84570312 C7.11068325 3.48704305 3.04330923 4.13776221 -1 5 C-0.67 3.35 -0.34 1.7 0 0 Z " fill="#EFF7F0" transform="translate(81,0)"/>
<path d="M0 0 C5.625 -0.25 5.625 -0.25 9 2 C9 2.99 9 3.98 9 5 C8.34 5 7.68 5 7 5 C6.67 6.65 6.34 8.3 6 10 C4.0625 9.25 4.0625 9.25 2 8 C1.3125 6.125 1.3125 6.125 1 4 C0.814375 3.2575 0.62875 2.515 0.4375 1.75 C0.293125 1.1725 0.14875 0.595 0 0 Z " fill="#40327B" transform="translate(23,176)"/>
<path d="M0 0 C3.3 0 6.6 0 10 0 C11.03604162 4.14416647 10.91488137 7.02142353 10.5625 11.25 C10.46066406 12.51328125 10.35882813 13.7765625 10.25390625 15.078125 C10.17011719 16.04234375 10.08632813 17.0065625 10 18 C9.67 18 9.34 18 9 18 C8.67 13.05 8.34 8.1 8 3 C6.02 3.66 4.04 4.32 2 5 C2 4.01 2 3.02 2 2 C1.34 1.34 0.68 0.68 0 0 Z " fill="#DAEFF4" transform="translate(22,48)"/>
<path d="M0 0 C0.99 0.33 1.98 0.66 3 1 C3.33 2.32 3.66 3.64 4 5 C7.3 5 10.6 5 14 5 C14.33 5.99 14.66 6.98 15 8 C13.68 8 12.36 8 11 8 C11 8.66 11 9.32 11 10 C6.75523087 9.32083694 3.54422063 7.34052306 0 5 C-1 2.8125 -1 2.8125 -1 1 C-0.67 0.67 -0.34 0.34 0 0 Z " fill="#76237B" transform="translate(53,203)"/>
<path d="M0 0 C0.66 0.33 1.32 0.66 2 1 C1.07176269 4.12225275 0.41212004 5.69357483 -2.23706055 7.66333008 C-5.35070649 9.1696667 -7.09540361 9.28464 -10.51953125 9.07421875 C-11.54111328 9.01943359 -12.56269531 8.96464844 -13.61523438 8.90820312 C-15.19788086 8.79895508 -15.19788086 8.79895508 -16.8125 8.6875 C-17.88693359 8.62626953 -18.96136719 8.56503906 -20.06835938 8.50195312 C-22.71345937 8.34912513 -25.35672716 8.18134192 -28 8 C-28 7.67 -28 7.34 -28 7 C-20.41 7 -12.82 7 -5 7 C-4.67 5.68 -4.34 4.36 -4 3 C-3.01 3 -2.02 3 -1 3 C-0.67 2.01 -0.34 1.02 0 0 Z " fill="#EDE9E9" transform="translate(127,128)"/>
<path d="M0 0 C0.721875 0.185625 1.44375 0.37125 2.1875 0.5625 C5.12826973 1.01995307 7.14103058 0.73516357 10 0 C10 0.66 10 1.32 10 2 C4.25 5 4.25 5 2 5 C2 5.66 2 6.32 2 7 C1.401875 7.268125 0.80375 7.53625 0.1875 7.8125 C-1.97224808 8.98493467 -3.35790256 10.19369282 -5 12 C-5.33 11.34 -5.66 10.68 -6 10 C-6.66 10 -7.32 10 -8 10 C-8 9.34 -8 8.68 -8 8 C-6.88625 7.566875 -5.7725 7.13375 -4.625 6.6875 C-0.82487666 5.30088881 -0.82487666 5.30088881 1 2 C0.67 1.34 0.34 0.68 0 0 Z " fill="#A2D3D1" transform="translate(54,32)"/>
<path d="M0 0 C0 0.66 0 1.32 0 2 C0.99 2.33 1.98 2.66 3 3 C3 3.66 3 4.32 3 5 C-1.62 5 -6.24 5 -11 5 C-11.33 4.01 -11.66 3.02 -12 2 C-7.82262526 0.40861915 -4.46839215 -0.21278058 0 0 Z " fill="#CE4689" transform="translate(139,203)"/>
<path d="M0 0 C5.29158974 1.40071493 7.77478044 4.85487245 11 9 C8 9 8 9 6.4375 7.5625 C5.963125 7.046875 5.48875 6.53125 5 6 C4.34 5.67 3.68 5.34 3 5 C3.33 5.99 3.66 6.98 4 8 C2.35 8 0.7 8 -1 8 C-1.04241723 5.66705225 -1.04092937 3.33297433 -1 1 C-0.67 0.67 -0.34 0.34 0 0 Z " fill="#49216F" transform="translate(41,176)"/>
<path d="M0 0 C0.99 0.495 0.99 0.495 2 1 C2.41064453 2.85766602 2.41064453 2.85766602 2.6328125 5.25390625 C2.71660156 6.10791016 2.80039062 6.96191406 2.88671875 7.84179688 C2.96535156 8.73962891 3.04398438 9.63746094 3.125 10.5625 C3.21136719 11.46419922 3.29773438 12.36589844 3.38671875 13.29492188 C3.59951659 15.52929918 3.80354467 17.76413615 4 20 C3.01 20.66 2.02 21.32 1 22 C0.20274098 14.63959083 -0.12886183 7.40239645 0 0 Z " fill="#27609F" transform="translate(16,108)"/>
<path d="M0 0 C2.61759063 2.61759063 4.03866896 5.66957636 5.6875 8.9375 C6.02072266 9.57107422 6.35394531 10.20464844 6.69726562 10.85742188 C7.54496741 12.53343933 8.2801063 14.26524184 9 16 C8.67 16.99 8.34 17.98 8 19 C4.7 14.05 1.4 9.1 -2 4 C-1.34 2.68 -0.68 1.36 0 0 Z " fill="#F5F9FB" transform="translate(88,67)"/>
<path d="M0 0 C6.435 2.97 6.435 2.97 13 6 C13 6.33 13 6.66 13 7 C8.71 7 4.42 7 0 7 C0 4.69 0 2.38 0 0 Z " fill="#781C79" transform="translate(64,193)"/>
<path d="M0 0 C1.32 0.33 2.64 0.66 4 1 C4 1.66 4 2.32 4 3 C5.65 3.33 7.3 3.66 9 4 C9 6.64 9 9.28 9 12 C8.01 12.495 8.01 12.495 7 13 C5.83072457 11.02237345 4.66464427 9.04285742 3.5 7.0625 C2.8503125 5.96035156 2.200625 4.85820313 1.53125 3.72265625 C0 1 0 1 0 0 Z " fill="#F3A40B" transform="translate(191,61)"/>
<path d="M0 0 C0.66 0.66 1.32 1.32 2 2 C2.66 2 3.32 2 4 2 C4 2.66 4 3.32 4 4 C-1.5522888 6.8352113 -5.80112515 7.37952295 -12 7 C-8.18765077 3.6497537 -4.66714289 1.83025211 0 0 Z " fill="#6EBFA8" transform="translate(68,9)"/>
<path d="M0 0 C2.13586678 3.20380017 2.23132175 4.01939967 2.125 7.6875 C2.10695312 8.49574219 2.08890625 9.30398437 2.0703125 10.13671875 C2.03550781 11.05904297 2.03550781 11.05904297 2 12 C1.34 12 0.68 12 0 12 C-0.33 10.68 -0.66 9.36 -1 8 C-1.66 8 -2.32 8 -3 8 C-3 9.32 -3 10.64 -3 12 C-3.99 12 -4.98 12 -6 12 C-4.43358249 7.69235185 -2.31663844 3.93828536 0 0 Z " fill="#F7F0EA" transform="translate(181,148)"/>
<path d="M0 0 C0.33 0 0.66 0 1 0 C1 2.31 1 4.62 1 7 C0.01 7.495 0.01 7.495 -1 8 C-1.46523063 9.89533342 -1.46523063 9.89533342 -1.625 12.0625 C-1.810625 14.0115625 -1.810625 14.0115625 -2 16 C-3.32 16.33 -4.64 16.66 -6 17 C-5.35812082 11.86496656 -4.31727753 7.0056546 -3 2 C-2.34 2.33 -1.68 2.66 -1 3 C-0.67 2.01 -0.34 1.02 0 0 Z " fill="#2883C0" transform="translate(7,80)"/>
<path d="M0 0 C0.99 0 1.98 0 3 0 C3 1.65 3 3.3 3 5 C1.3767313 5.6708712 -0.24867578 6.33657029 -1.875 7 C-2.77992188 7.37125 -3.68484375 7.7425 -4.6171875 8.125 C-7 9 -7 9 -9 9 C-9 8.34 -9 7.68 -9 7 C-11.97 6.505 -11.97 6.505 -15 6 C-15 5.67 -15 5.34 -15 5 C-10.38 5 -5.76 5 -1 5 C-0.67 3.35 -0.34 1.7 0 0 Z " fill="#D25089" transform="translate(153,211)"/>
<path d="M0 0 C2.875 0.625 2.875 0.625 6 2 C7.375 5.125 7.375 5.125 8 8 C5.66705225 8.04241723 3.33297433 8.04092937 1 8 C0 7 0 7 -0.0625 3.4375 C-0.041875 2.303125 -0.02125 1.16875 0 0 Z " fill="#89A01C" transform="translate(168,16)"/>
<path d="M0 0 C8.91 0 17.82 0 27 0 C27 0.33 27 0.66 27 1 C20.96813288 1.61082199 15.06595767 2 9 2 C7.948125 2.309375 7.948125 2.309375 6.875 2.625 C4.16533974 3.16693205 2.44043962 2.15242982 0 1 C0 0.67 0 0.34 0 0 Z " fill="#BA157C" transform="translate(99,206)"/>
<path d="M0 0 C0.66 0 1.32 0 2 0 C2.05791844 3.12492251 2.09356746 6.24970766 2.125 9.375 C2.14175781 10.26445313 2.15851563 11.15390625 2.17578125 12.0703125 C2.18222656 12.92109375 2.18867188 13.771875 2.1953125 14.6484375 C2.20578613 15.43395996 2.21625977 16.21948242 2.22705078 17.02880859 C2 19 2 19 0 21 C-3.02450584 13.94281971 -1.32750754 7.36256103 0 0 Z " fill="#EA5911" transform="translate(206,117)"/>
<path d="M0 0 C0.66 0.66 1.32 1.32 2 2 C1.34 4.31 0.68 6.62 0 9 C-0.66 9 -1.32 9 -2 9 C-2 8.34 -2 7.68 -2 7 C-10.91 7 -19.82 7 -29 7 C-29 6.67 -29 6.34 -29 6 C-28.22809326 5.99589111 -27.45618652 5.99178223 -26.66088867 5.98754883 C-23.16897579 5.9546881 -19.67882526 5.88405107 -16.1875 5.8125 C-14.97255859 5.80669922 -13.75761719 5.80089844 -12.50585938 5.79492188 C-11.34248047 5.76591797 -10.17910156 5.73691406 -8.98046875 5.70703125 C-7.90692139 5.6913208 -6.83337402 5.67561035 -5.72729492 5.65942383 C-2.7654494 5.25278048 -2.7654494 5.25278048 -1.1262207 2.45581055 C-0.75456787 1.64539307 -0.38291504 0.83497559 0 0 Z " fill="#E3E8EB" transform="translate(128,83)"/>
<path d="M0 0 C-1 1 -2 2 -3 3 C-3.33 3.66 -3.66 4.32 -4 5 C-6.97 5 -9.94 5 -13 5 C-13 4.34 -13 3.68 -13 3 C-11.5903653 2.29819469 -10.17192359 1.61406042 -8.75 0.9375 C-7.96109375 0.55464844 -7.1721875 0.17179688 -6.359375 -0.22265625 C-3.74006478 -1.08564091 -2.55144824 -0.93045933 0 0 Z " fill="#F9EDEC" transform="translate(210,171)"/>
<path d="M0 0 C0.33 0.99 0.66 1.98 1 3 C0.67 3.66 0.34 4.32 0 5 C-1.98 5 -3.96 5 -6 5 C-6 5.66 -6 6.32 -6 7 C-8.64 7 -11.28 7 -14 7 C-10.26427061 2.17970402 -10.26427061 2.17970402 -6.6640625 1.66796875 C-4.4241967 1.68563331 -2.22879201 1.78149098 0 2 C0 1.34 0 0.68 0 0 Z " fill="#F9EEE8" transform="translate(174,160)"/>
<path d="M0 0 C0.66 0.33 1.32 0.66 2 1 C0.54782324 2.50596108 -0.91192861 4.00462104 -2.375 5.5 C-3.18710937 6.3353125 -3.99921875 7.170625 -4.8359375 8.03125 C-7 10 -7 10 -9 10 C-9.33 10.99 -9.66 11.98 -10 13 C-10.66 13 -11.32 13 -12 13 C-10.63055898 10.05043472 -9.12169591 7.47531189 -7 5 C-6.34 5 -5.68 5 -5 5 C-4.731875 4.360625 -4.46375 3.72125 -4.1875 3.0625 C-3 1 -3 1 0 0 Z " fill="#E3F2F5" transform="translate(49,43)"/>
<path d="M0 0 C0.66 0.33 1.32 0.66 2 1 C1.67 2.32 1.34 3.64 1 5 C1.66 5 2.32 5 3 5 C3 5.66 3 6.32 3 7 C-1.01804691 7.84098656 -4.01803543 8.05404945 -8 7 C-5.4837822 4.39391727 -2.94865641 2.10618315 0 0 Z " fill="#EBABB6" transform="translate(172,184)"/>
<path d="M0 0 C2.0625 0.4375 2.0625 0.4375 4 1 C3.979375 1.94875 3.95875 2.8975 3.9375 3.875 C3.77448174 6.90666283 3.77448174 6.90666283 5 9 C2.03 8.505 2.03 8.505 -1 8 C-1.04241723 5.66705225 -1.04092937 3.33297433 -1 1 C-0.67 0.67 -0.34 0.34 0 0 Z " fill="#F7A506" transform="translate(201,47)"/>
<path d="M0 0 C5.61 0 11.22 0 17 0 C16.01 1.32 15.02 2.64 14 4 C10.3125 4.25 10.3125 4.25 7 4 C7 3.34 7 2.68 7 2 C4.69 1.67 2.38 1.34 0 1 C0 0.67 0 0.34 0 0 Z " fill="#2DA866" transform="translate(87,16)"/>
<path d="M0 0 C3.0916909 2.52956528 3.90931332 5.22454612 5 9 C2.69 9 0.38 9 -2 9 C-2 6.36 -2 3.72 -2 1 C-1.34 0.67 -0.68 0.34 0 0 Z " fill="#2E2A72" transform="translate(26,151)"/>
<path d="M0 0 C1.4540625 0.0309375 1.4540625 0.0309375 2.9375 0.0625 C2.43451212 4.46364397 0.84977269 6.77445019 -2.0625 10.0625 C-2.42366046 8.5850254 -2.77625048 7.10545325 -3.125 5.625 C-3.32222656 4.80128906 -3.51945313 3.97757812 -3.72265625 3.12890625 C-3.89087891 2.10603516 -3.89087891 2.10603516 -4.0625 1.0625 C-3.0625 0.0625 -3.0625 0.0625 0 0 Z " fill="#F29506" transform="translate(205.0625,79.9375)"/>
<path d="M0 0 C-0.32627286 3.01802393 -0.61081236 4.59691281 -2.75 6.8125 C-5.37152557 8.19608294 -7.07674878 8.24360427 -10 8 C-9.34 7.67 -8.68 7.34 -8 7 C-7.690625 6.38125 -7.38125 5.7625 -7.0625 5.125 C-5.25787906 1.51575812 -4.13779267 0 0 0 Z " fill="#F2C2C7" transform="translate(184,176)"/>
<path d="M0 0 C1 3 1 3 0.07421875 5.12109375 C-0.61220703 6.26771484 -0.61220703 6.26771484 -1.3125 7.4375 C-2.97633327 10.25505147 -4.57113183 13.05505574 -6 16 C-7.13238877 12.61520953 -7.18086851 11.36518683 -5.56640625 8.10546875 C-4.90511719 7.14253906 -4.24382812 6.17960938 -3.5625 5.1875 C-2.90378906 4.21167969 -2.24507813 3.23585937 -1.56640625 2.23046875 C-1.04949219 1.49441406 -0.53257813 0.75835937 0 0 Z M-9 13 C-8.34 13.33 -7.68 13.66 -7 14 C-7.99 14.66 -8.98 15.32 -10 16 C-9.67 15.01 -9.34 14.02 -9 13 Z " fill="#EEF2F6" transform="translate(96,139)"/>
<path d="M0 0 C1.69141656 0.08963062 3.37959602 0.24577676 5.0625 0.4375 C6.44115234 0.59025391 6.44115234 0.59025391 7.84765625 0.74609375 C8.55792969 0.82988281 9.26820313 0.91367188 10 1 C4.72346191 4.51769206 -0.86392402 4.10579441 -7 4 C-6.34 3.67 -5.68 3.34 -5 3 C-5 2.34 -5 1.68 -5 1 C-3.68 1 -2.36 1 -1 1 C-0.67 0.67 -0.34 0.34 0 0 Z " fill="#B9197E" transform="translate(127,220)"/>
<path d="M0 0 C0.33 0.99 0.66 1.98 1 3 C1.66 3 2.32 3 3 3 C2.67 4.32 2.34 5.64 2 7 C1.34 6.67 0.68 6.34 0 6 C0.33 8.31 0.66 10.62 1 13 C0.01 12.67 -0.98 12.34 -2 12 C-1.67 11.01 -1.34 10.02 -1 9 C-1.66 8.67 -2.32 8.34 -3 8 C-2.45276317 4.62537285 -1.9451 2.91765 0 0 Z " fill="#EA371E" transform="translate(132,124)"/>
<path d="M0 0 C1.13671875 1.7109375 1.13671875 1.7109375 2 4 C1.20703125 6.2890625 1.20703125 6.2890625 -0.1875 8.625 C-0.63480469 9.40101562 -1.08210937 10.17703125 -1.54296875 10.9765625 C-3 13 -3 13 -6 15 C-4.36041242 9.76727367 -2.61047965 4.84803364 0 0 Z " fill="#F0F4F7" transform="translate(135,69)"/>
<path d="M0 0 C0.33 0 0.66 0 1 0 C1.33 1.98 1.66 3.96 2 6 C2.66 6 3.32 6 4 6 C3.67 9.63 3.34 13.26 3 17 C2.67 16.01 2.34 15.02 2 14 C1.34 14 0.68 14 0 14 C-0.77916092 8.97874074 -1.13016601 5.02296004 0 0 Z " fill="#FBF2E6" transform="translate(202,114)"/>
<path d="M0 0 C1.64767247 0.28109113 3.29313145 0.57518526 4.9375 0.875 C5.85402344 1.03742187 6.77054688 1.19984375 7.71484375 1.3671875 C8.46894531 1.57601563 9.22304687 1.78484375 10 2 C10.33 2.66 10.66 3.32 11 4 C4.8894576 4.11269443 -0.95170514 3.89604368 -7 3 C-7 2.67 -7 2.34 -7 2 C-4.69 2 -2.38 2 0 2 C0 1.34 0 0.68 0 0 Z " fill="#419B31" transform="translate(139,4)"/>
<path d="M0 0 C0.99 0.33 1.98 0.66 3 1 C3 4.3 3 7.6 3 11 C1 9.375 1 9.375 -1 7 C-1.3125 3.8125 -1.3125 3.8125 -1 1 C-0.67 0.67 -0.34 0.34 0 0 Z " fill="#E6A60B" transform="translate(189,50)"/>
<path d="M0 0 C2.64 0.33 5.28 0.66 8 1 C8 1.99 8 2.98 8 4 C2.72 4 -2.56 4 -8 4 C-4.3558226 1.5705484 -2.28758728 1.83820425 2 2 C1.34 1.34 0.68 0.68 0 0 Z " fill="#9B1176" transform="translate(90,204)"/>
<path d="M0 0 C0.66 0 1.32 0 2 0 C2.33 3.3 2.66 6.6 3 10 C2.01 10 1.02 10 0 10 C-0.33 8.35 -0.66 6.7 -1 5 C-1.33 6.65 -1.66 8.3 -2 10 C-2.33 10 -2.66 10 -3 10 C-3.125 4.25 -3.125 4.25 -2 2 C-1.34 2 -0.68 2 0 2 C0 1.34 0 0.68 0 0 Z " fill="#2486C6" transform="translate(19,80)"/>
<path d="M0 0 C0 3.49889647 -0.54120332 4.0553603 -2.75 6.625 C-3.26046875 7.23601563 -3.7709375 7.84703125 -4.296875 8.4765625 C-6.19607419 10.17538747 -7.51275949 10.5998787 -10 11 C-8.25 7.125 -8.25 7.125 -6 6 C-5.67 5.01 -5.34 4.02 -5 3 C-2.4375 1.3125 -2.4375 1.3125 0 0 Z " fill="#D7EDF1" transform="translate(37,29)"/>
<path d="M0 0 C0.1875 2.375 0.1875 2.375 0 5 C-3 7 -3 7 -5.6875 6.625 C-6.450625 6.41875 -7.21375 6.2125 -8 6 C-8 5.34 -8 4.68 -8 4 C-2.58823529 0 -2.58823529 0 0 0 Z " fill="#95D1CB" transform="translate(56,16)"/>
<path d="M0 0 C-0.33 1.32 -0.66 2.64 -1 4 C-4.96 4 -8.92 4 -13 4 C-4.66666667 -1.55555556 -4.66666667 -1.55555556 0 0 Z " fill="#DB7E9C" transform="translate(159,196)"/>
<path d="M0 0 C0.99 0.33 1.98 0.66 3 1 C3.28571429 9.57142857 3.28571429 9.57142857 1 13 C0.34 12.67 -0.32 12.34 -1 12 C-0.67 8.04 -0.34 4.08 0 0 Z " fill="#25569F" transform="translate(4,116)"/>
<path d="M0 0 C0.125 2.875 0.125 2.875 0 6 C-0.66 6.66 -1.32 7.32 -2 8 C-3.65 6.02 -5.3 4.04 -7 2 C-4 0 -4 0 0 0 Z " fill="#F9F5EC" transform="translate(200,32)"/>
<path d="M0 0 C-0.33 1.65 -0.66 3.3 -1 5 C-3.31 5.33 -5.62 5.66 -8 6 C-8 4.68 -8 3.36 -8 2 C-5.09399739 0.74335022 -3.20395416 0 0 0 Z " fill="#3DAE77" transform="translate(88,3)"/>
<path d="M0 0 C2.00720923 0.28674418 4.0085944 0.61866701 6 1 C6 1.66 6 2.32 6 3 C6.99 3.33 7.98 3.66 9 4 C7.02 4.99 5.04 5.98 3 7 C2.67 6.01 2.34 5.02 2 4 C2.33 3.34 2.66 2.68 3 2 C1.68 1.67 0.36 1.34 -1 1 C-0.67 0.67 -0.34 0.34 0 0 Z " fill="#DA6F95" transform="translate(153,209)"/>
<path d="M0 0 C2.18994248 3.28491373 2.35277339 4.83095639 2.625 8.6875 C2.69976562 9.68136719 2.77453125 10.67523438 2.8515625 11.69921875 C2.92503906 12.83810547 2.92503906 12.83810547 3 14 C2.34 14 1.68 14 1 14 C-0.75328507 10.97159851 -1.25093193 8.80125633 -1.1875 5.3125 C-1.18105469 4.52488281 -1.17460937 3.73726563 -1.16796875 2.92578125 C-1 1 -1 1 0 0 Z " fill="#FBEADB" transform="translate(203,90)"/>
<path d="M0 0 C5.15171623 -0.09038099 9.91913204 0.15318867 15 1 C13.02579865 3.52259061 12.03254358 3.9929808 8.8125 4.6875 C7.4203125 4.8421875 7.4203125 4.8421875 6 5 C6.33 4.34 6.66 3.68 7 3 C4.69 2.34 2.38 1.68 0 1 C0 0.67 0 0.34 0 0 Z " fill="#EAF6EA" transform="translate(115,19)"/>
<path d="M0 0 C4.29 0 8.58 0 13 0 C12.67 0.99 12.34 1.98 12 3 C12.99 3.33 13.98 3.66 15 4 C9.76119922 3.44854729 5.02649303 2.57077907 0 1 C0 0.67 0 0.34 0 0 Z " fill="#F0E3F2" transform="translate(83,201)"/>
<path d="M0 0 C2.95929119 2.75520215 5.03681826 5.46627288 7 9 C6.01 9.495 6.01 9.495 5 10 C4.38125 9.34 3.7625 8.68 3.125 8 C1.24362573 5.7715451 1.24362573 5.7715451 -1 6 C-1.042721 4.33388095 -1.04063832 2.66617115 -1 1 C-0.67 0.67 -0.34 0.34 0 0 Z " fill="#EDF0F1" transform="translate(17,173)"/>
<path d="M0 0 C1.98 0 3.96 0 6 0 C4.515 1.485 4.515 1.485 3 3 C3.99 4.485 3.99 4.485 5 6 C3.35 6.66 1.7 7.32 0 8 C0 5.36 0 2.72 0 0 Z " fill="#83C8BA" transform="translate(64,24)"/>
<path d="M0 0 C0.33 0 0.66 0 1 0 C1 1.65 1 3.3 1 5 C2.32 5.33 3.64 5.66 5 6 C4.34 6 3.68 6 3 6 C3 6.66 3 7.32 3 8 C1.02 8 -0.96 8 -3 8 C-2.67 6.35 -2.34 4.7 -2 3 C-1.34 3 -0.68 3 0 3 C0 2.01 0 1.02 0 0 Z " fill="#F5DAD4" transform="translate(194,168)"/>
<path d="M0 0 C2.11044382 3.16566573 2.75552077 5.51197415 3.625 9.1875 C3.88539063 10.27417969 4.14578125 11.36085938 4.4140625 12.48046875 C4.60742188 13.31191406 4.80078125 14.14335938 5 15 C4.01 15 3.02 15 2 15 C1.66048381 13.43883181 1.32867456 11.87598662 1 10.3125 C0.814375 9.44238281 0.62875 8.57226562 0.4375 7.67578125 C0.01027953 5.06287036 -0.07616201 2.64186962 0 0 Z " fill="#EC9C11" transform="translate(217,72)"/>
<path d="M0 0 C0.66 0.33 1.32 0.66 2 1 C2 2.65 2 4.3 2 6 C2.66 6 3.32 6 4 6 C3.67 6.99 3.34 7.98 3 9 C0.36 7.02 -2.28 5.04 -5 3 C-3 1 -3 1 0 0 Z " fill="#A2A925" transform="translate(170,33)"/>
<path d="M0 0 C0.33 0.66 0.66 1.32 1 2 C3.02463255 2.65213292 3.02463255 2.65213292 5 3 C3.68 3.33 2.36 3.66 1 4 C1.33 4.66 1.66 5.32 2 6 C1.67 6.66 1.34 7.32 1 8 C-0.32 8 -1.64 8 -3 8 C-3 6.02 -3 4.04 -3 2 C-2.01 2 -1.02 2 0 2 C0 1.34 0 0.68 0 0 Z " fill="#52B78F" transform="translate(83,16)"/>
<path d="M0 0 C-0.99 0.33 -1.98 0.66 -3 1 C-3 1.66 -3 2.32 -3 3 C-6.63 3.33 -10.26 3.66 -14 4 C-13.67 3.01 -13.34 2.02 -13 1 C-8.62426048 0.40667939 -4.42471556 -0.13827236 0 0 Z " fill="#E6401C" transform="translate(152,113)"/>
<path d="M0 0 C-3.68087353 2.45391569 -6.44355588 2.22802759 -10.6875 2.125 C-11.7403418 2.11146484 -11.7403418 2.11146484 -12.81445312 2.09765625 C-14.54311525 2.07413704 -16.27160145 2.03826713 -18 2 C-18 1.67 -18 1.34 -18 1 C-15.75152519 0.63627613 -13.50113812 0.28435904 -11.25 -0.0625 C-9.99703125 -0.25972656 -8.7440625 -0.45695313 -7.453125 -0.66015625 C-4.49983411 -0.95080818 -2.7397586 -0.98935727 0 0 Z " fill="#F5E0EE" transform="translate(138,223)"/>
<path d="M0 0 C2.31 0 4.62 0 7 0 C7 0.33 7 0.66 7 1 C8.65 1.33 10.3 1.66 12 2 C12 2.66 12 3.32 12 4 C8.37 4 4.74 4 1 4 C1.33 3.01 1.66 2.02 2 1 C1.34 0.67 0.68 0.34 0 0 Z " fill="#C22A83" transform="translate(126,216)"/>
<path d="M0 0 C1.5 1.0625 1.5 1.0625 3 3 C3.125 6.4375 3.125 6.4375 3 10 C3.42854995 12.31036915 3.42854995 12.31036915 4 14 C3.34 14 2.68 14 2 14 C0.66416101 9.15758367 -0.25328119 5.06562383 0 0 Z " fill="#E7ECF2" transform="translate(20,125)"/>
<path d="M0 0 C0.33 0 0.66 0 1 0 C2.33257403 10.55808656 2.33257403 10.55808656 1 15 C0.67 15 0.34 15 0 15 C-0.95348275 10.23258627 -1.16407956 5.84034716 -1 1 C-0.67 0.67 -0.34 0.34 0 0 Z " fill="#2578B7" transform="translate(6,87)"/>
<path d="M0 0 C4.85963179 0.60745397 8.7405518 2.72758967 13 5 C12.34 5.66 11.68 6.32 11 7 C9.824375 6.505 9.824375 6.505 8.625 6 C6.15667503 4.88133489 6.15667503 4.88133489 4 5 C2.61767557 3.37373596 1.28062485 1.7074998 0 0 Z " fill="#EFF6ED" transform="translate(144,25)"/>
<path d="M0 0 C2.69082872 0.17635452 5.32851446 0.61835921 8 1 C8 1.99 8 2.98 8 4 C5.36 4 2.72 4 0 4 C-0.33 3.01 -0.66 2.02 -1 1 C-0.67 0.67 -0.34 0.34 0 0 Z " fill="#17A04A" transform="translate(96,4)"/>
<path d="M0 0 C0 0.66 0 1.32 0 2 C0.99 2.33 1.98 2.66 3 3 C3 3.33 3 3.66 3 4 C-1.29 3.67 -5.58 3.34 -10 3 C-4 0 -4 0 0 0 Z " fill="#F9E9F2" transform="translate(152,218)"/>
<path d="M0 0 C0.99 0.33 1.98 0.66 3 1 C1.88121617 2.17262904 0.75476949 3.33795138 -0.375 4.5 C-1.00148437 5.1496875 -1.62796875 5.799375 -2.2734375 6.46875 C-4 8 -4 8 -6 8 C-5.67 6.68 -5.34 5.36 -5 4 C-4.34 4 -3.68 4 -3 4 C-3 3.34 -3 2.68 -3 2 C-2.01 1.34 -1.02 0.68 0 0 Z " fill="#FAEBEB" transform="translate(198,184)"/>
<path d="M0 0 C2.9375 0.75 2.9375 0.75 6 2 C6.875 4.125 6.875 4.125 7 6 C1.25 4.125 1.25 4.125 -1 3 C-0.67 2.01 -0.34 1.02 0 0 Z " fill="#F2F7EB" transform="translate(162,9)"/>
<path d="M0 0 C3.96 0.33 7.92 0.66 12 1 C11.01 1.33 10.02 1.66 9 2 C9 2.66 9 3.32 9 4 C5.87709365 3.51421457 3.00419641 3.0013988 0 2 C0 1.34 0 0.68 0 0 Z " fill="#90207E" transform="translate(73,216)"/>
<path d="M0 0 C0.66 0.33 1.32 0.66 2 1 C-0.99481865 5.31606218 -0.99481865 5.31606218 -3 7 C-6.3125 6.875 -6.3125 6.875 -9 6 C-3.30379747 1.25316456 -3.30379747 1.25316456 0 0 Z " fill="#FAEBF0" transform="translate(172,207)"/>
<path d="M0 0 C4.875 4.75 4.875 4.75 6 7 C3.69 7.33 1.38 7.66 -1 8 C-1 7.01 -1 6.02 -1 5 C-0.34 4.67 0.32 4.34 1 4 C0.67 2.68 0.34 1.36 0 0 Z " fill="#EAAB1C" transform="translate(198,40)"/>
<path d="M0 0 C0 1.65 0 3.3 0 5 C-1.32 5.33 -2.64 5.66 -4 6 C-4 4.68 -4 3.36 -4 2 C-4.66 1.34 -5.32 0.68 -6 0 C-2.25 -1.125 -2.25 -1.125 0 0 Z " fill="#E998AB" transform="translate(168,191)"/>
<path d="M0 0 C2.66735273 2.48952921 4.55746343 4.63408134 6 8 C5.01 8.495 5.01 8.495 4 9 C3.34 8.34 2.68 7.68 2 7 C1.01 7 0.02 7 -1 7 C-0.67 4.69 -0.34 2.38 0 0 Z " fill="#E2CECD" transform="translate(125,135)"/>
<path d="M0 0 C0.66 0 1.32 0 2 0 C2 0.66 2 1.32 2 2 C2.66 2 3.32 2 4 2 C4 4.31 4 6.62 4 9 C2.68 7.68 1.36 6.36 0 5 C0.33 4.34 0.66 3.68 1 3 C0.34 3 -0.32 3 -1 3 C-0.67 2.01 -0.34 1.02 0 0 Z " fill="#C5A61A" transform="translate(179,41)"/>
<path d="M0 0 C-0.598125 0.268125 -1.19625 0.53625 -1.8125 0.8125 C-3.97224808 1.98493467 -5.35790256 3.19369282 -7 5 C-7.33 4.34 -7.66 3.68 -8 3 C-8.66 3 -9.32 3 -10 3 C-10 2.34 -10 1.68 -10 1 C-3.71428571 -1.42857143 -3.71428571 -1.42857143 0 0 Z " fill="#BADEE1" transform="translate(56,39)"/>
<path d="M0 0 C1.65 0.99 3.3 1.98 5 3 C4.1654738 5.50357861 3.20628008 7.66785852 2 10 C1.67 10 1.34 10 1 10 C1 7.36 1 4.72 1 2 C0.34 1.67 -0.32 1.34 -1 1 C-0.67 0.67 -0.34 0.34 0 0 Z " fill="#9DA012" transform="translate(175,20)"/>
<path d="M0 0 C0 1.98 0 3.96 0 6 C-2.97 5.505 -2.97 5.505 -6 5 C-5.34 4.34 -4.68 3.68 -4 3 C-4.33 2.34 -4.66 1.68 -5 1 C-2 0 -2 0 0 0 Z " fill="#5BA337" transform="translate(144,18)"/>
<path d="M0 0 C0.33 1.32 0.66 2.64 1 4 C0.01 4 -0.98 4 -2 4 C-2 4.99 -2 5.98 -2 7 C-5.65316671 5.75023244 -6.78065836 5.32901247 -9 2 C-8.443125 2.226875 -7.88625 2.45375 -7.3125 2.6875 C-4.07876916 3.12449065 -2.60926022 1.81198627 0 0 Z " fill="#5F1D6F" transform="translate(55,200)"/>
<path d="M0 0 C-1.61594832 2.04119788 -3.2856382 4.04072937 -5 6 C-5.66 6 -6.32 6 -7 6 C-7 4.02 -7 2.04 -7 0 C-3.98968256 -0.93423645 -3.13349732 -1.04449911 0 0 Z " fill="#F1C5C8" transform="translate(191,193)"/>
<path d="M0 0 C3.71599191 -0.20086443 4.77208445 -0.1519437 8 2 C7.67 2.99 7.34 3.98 7 5 C7 4.34 7 3.68 7 3 C6.01 3.495 6.01 3.495 5 4 C4.67 4.99 4.34 5.98 4 7 C3.34 5.35 2.68 3.7 2 2 C1.34 2 0.68 2 0 2 C0 1.34 0 0.68 0 0 Z " fill="#332670" transform="translate(24,176)"/>
<path d="M0 0 C2 3 2 3 1.625 5.6875 C1.41875 6.450625 1.2125 7.21375 1 8 C0.01 8 -0.98 8 -2 8 C-2.125 5.125 -2.125 5.125 -2 2 C-1.34 1.34 -0.68 0.68 0 0 Z " fill="#264B8D" transform="translate(19,128)"/>
<path d="M0 0 C0.66 0 1.32 0 2 0 C2.33 2.64 2.66 5.28 3 8 C2.01 8.66 1.02 9.32 0 10 C0 6.7 0 3.4 0 0 Z " fill="#2D569E" transform="translate(17,120)"/>
<path d="M0 0 C1.98 0.66 3.96 1.32 6 2 C4.3545622 3.68762851 2.68711423 5.3540349 1 7 C0.67 7 0.34 7 0 7 C0 4.69 0 2.38 0 0 Z " fill="#5E9E24" transform="translate(152,8)"/>
<path d="M0 0 C0.99 0 1.98 0 3 0 C3 0.66 3 1.32 3 2 C3.99 1.67 4.98 1.34 6 1 C6 1.66 6 2.32 6 3 C6.99 3 7.98 3 9 3 C9 3.66 9 4.32 9 5 C5.93606987 5.25532751 4.36766788 5.21861333 1.6875 3.625 C1.130625 3.08875 0.57375 2.5525 0 2 C0 1.34 0 0.68 0 0 Z " fill="#F4F1F3" transform="translate(55,185)"/>
<path d="M0 0 C2.00047023 2.54605302 3.82572785 4.9664636 5 8 C4.67 8.99 4.34 9.98 4 11 C3.13341385 9.73760288 2.28207941 8.46472499 1.4375 7.1875 C0.72400391 6.12595703 0.72400391 6.12595703 -0.00390625 5.04296875 C-1 3 -1 3 0 0 Z " fill="#EAEFF3" transform="translate(92,75)"/>
<path d="M0 0 C-1 3 -1 3 -2 5 C-3.98 5 -5.96 5 -8 5 C-8.33 4.01 -8.66 3.02 -9 2 C-2.25 0 -2.25 0 0 0 Z " fill="#27A2D7" transform="translate(30,51)"/>
<path d="M0 0 C1.79133978 -0.05391993 3.58313899 -0.09275571 5.375 -0.125 C6.37273437 -0.14820313 7.37046875 -0.17140625 8.3984375 -0.1953125 C11 0 11 0 13 2 C11.9275 1.979375 10.855 1.95875 9.75 1.9375 C6.85209576 1.9857984 4.71387859 2.13155885 2 3 C2 2.34 2 1.68 2 1 C1.34 0.67 0.68 0.34 0 0 Z " fill="#F5F7F8" transform="translate(139,221)"/>
<path d="M0 0 C0.66 0.33 1.32 0.66 2 1 C1.67 1.66 1.34 2.32 1 3 C1.99 3.33 2.98 3.66 4 4 C3.01 5.485 3.01 5.485 2 7 C1.01 7 0.02 7 -1 7 C-1.04254356 5.00045254 -1.04080783 2.99958364 -1 1 C-0.67 0.67 -0.34 0.34 0 0 Z " fill="#E794A7" transform="translate(169,201)"/>
<path d="M0 0 C1.98 0.495 1.98 0.495 4 1 C4 1.99 4 2.98 4 4 C3.34 4.66 2.68 5.32 2 6 C1.01 5.01 0.02 4.02 -1 3 C-0.67 2.01 -0.34 1.02 0 0 Z " fill="#472A77" transform="translate(32,185)"/>
<path d="M0 0 C1.32 0 2.64 0 4 0 C4.12375 0.7425 4.2475 1.485 4.375 2.25 C4.9578376 4.81448542 5.78664449 6.69166512 7 9 C5.82460004 8.07347299 4.65989423 7.13336613 3.5 6.1875 C2.52546875 5.40439453 2.52546875 5.40439453 1.53125 4.60546875 C0 3 0 3 0 0 Z " fill="#371C6A" transform="translate(28,184)"/>
<path d="M0 0 C0.66 0.33 1.32 0.66 2 1 C2 3.31 2 5.62 2 8 C0.68 7.67 -0.64 7.34 -2 7 C-1.34 4.69 -0.68 2.38 0 0 Z " fill="#E54A1E" transform="translate(202,139)"/>
<path d="M0 0 C0 2 0 2 -1.75 4.125 C-4 6 -4 6 -8 6 C-8 5.01 -8 4.02 -8 3 C-2.25 0 -2.25 0 0 0 Z " fill="#429C27" transform="translate(144,16)"/>
<path d="M0 0 C0.66 0.99 1.32 1.98 2 3 C-1.4352048 5.29013653 -2.985331 5.17842973 -7 5 C-2.25 1.125 -2.25 1.125 0 0 Z " fill="#80C9B5" transform="translate(63,11)"/>
<path d="M0 0 C3.3 0 6.6 0 10 0 C10.33 0.99 10.66 1.98 11 3 C10.01 4.485 10.01 4.485 9 6 C8.34 4.35 7.68 2.7 7 1 C4.69 1 2.38 1 0 1 C0 0.67 0 0.34 0 0 Z " fill="#F9D0C4" transform="translate(163,114)"/>
<path d="M0 0 C3.3 0 6.6 0 10 0 C9.01 0.495 9.01 0.495 8 1 C8 1.99 8 2.98 8 4 C5.0280615 2.87548273 2.66559313 1.77706209 0 0 Z " fill="#F6FAF5" transform="translate(16,49)"/>
<path d="M0 0 C-0.33 0.99 -0.66 1.98 -1 3 C-3.64 3 -6.28 3 -9 3 C-5.93488101 -0.06511899 -4.25015687 -1.41671896 0 0 Z " fill="#329D39" transform="translate(132,17)"/>
<path d="M0 0 C1.98 0.99 3.96 1.98 6 3 C6 3.66 6 4.32 6 5 C4.02 5 2.04 5 0 5 C0 3.35 0 1.7 0 0 Z " fill="#75A022" transform="translate(160,11)"/>
<path d="M0 0 C0.99 0.33 1.98 0.66 3 1 C3.33 1.99 3.66 2.98 4 4 C3.01 4.66 2.02 5.32 1 6 C0.01 4.35 -0.98 2.7 -2 1 C-1.34 0.67 -0.68 0.34 0 0 Z " fill="#EDECF0" transform="translate(34,160)"/>
<path d="M0 0 C0.99 0.99 1.98 1.98 3 3 C2.67 3.99 2.34 4.98 2 6 C0.68 6 -0.64 6 -2 6 C-2 4.35 -2 2.7 -2 1 C-1.34 0.67 -0.68 0.34 0 0 Z " fill="#33357B" transform="translate(26,151)"/>
<path d="M0 0 C-1.07401108 2.91517292 -1.77810176 4.77810176 -4 7 C-4 6.01 -4 5.02 -4 4 C-4.66 4 -5.32 4 -6 4 C-5.67 3.01 -5.34 2.02 -5 1 C-2 0 -2 0 0 0 Z " fill="#F8EDE7" transform="translate(136,117)"/>
<path d="M0 0 C2.50037734 2.17424117 3.43628586 3.73045798 4 7 C2.35 6.67 0.7 6.34 -1 6 C-0.67 4.02 -0.34 2.04 0 0 Z " fill="#F6AF20" transform="translate(205,49)"/>
<path d="M0 0 C0.99 0 1.98 0 3 0 C3 1.65 3 3.3 3 5 C2.01 5.33 1.02 5.66 0 6 C-0.38218767 4.34385343 -0.71395102 2.67542976 -1 1 C-0.67 0.67 -0.34 0.34 0 0 Z " fill="#D6618D" transform="translate(153,211)"/>
<path d="M0 0 C1.98 0 3.96 0 6 0 C6.33 0.99 6.66 1.98 7 3 C5.68 3 4.36 3 3 3 C3 3.66 3 4.32 3 5 C2.34 4.67 1.68 4.34 1 4 C0.375 1.9375 0.375 1.9375 0 0 Z " fill="#761874" transform="translate(61,208)"/>
<path d="M0 0 C0.94875 0.04125 1.8975 0.0825 2.875 0.125 C1.225 1.775 -0.425 3.425 -2.125 5.125 C-2.455 4.465 -2.785 3.805 -3.125 3.125 C-3.785 2.795 -4.445 2.465 -5.125 2.125 C-3.125 0.125 -3.125 0.125 0 0 Z " fill="#ECA8B6" transform="translate(179.125,199.875)"/>
<path d="M0 0 C0.99 0.33 1.98 0.66 3 1 C2.67 3.64 2.34 6.28 2 9 C0.14223235 5.86501708 -0.20140476 3.62528568 0 0 Z " fill="#E65221" transform="translate(218,139)"/>
<path d="M0 0 C0.99 0 1.98 0 3 0 C2.67 1.32 2.34 2.64 2 4 C1.67 3.67 1.34 3.34 1 3 C1 4.65 1 6.3 1 8 C0.34 8 -0.32 8 -1 8 C-1.04241723 5.66705225 -1.04092937 3.33297433 -1 1 C-0.67 0.67 -0.34 0.34 0 0 Z " fill="#1A72B7" transform="translate(2,96)"/>
<path d="M0 0 C0.598125 0.45375 1.19625 0.9075 1.8125 1.375 C3.50590652 2.63295913 5.24477086 3.82984724 7 5 C5.35 5 3.7 5 2 5 C1.67 5.66 1.34 6.32 1 7 C-0.0625 4.625 -0.0625 4.625 -1 2 C-0.67 1.34 -0.34 0.68 0 0 Z " fill="#D4DADF" transform="translate(97,84)"/>
<path d="M0 0 C0.66 0.66 1.32 1.32 2 2 C1.34 4.31 0.68 6.62 0 9 C-0.66 9 -1.32 9 -2 9 C-2.6875 6.75 -2.6875 6.75 -3 4 C-1.5625 1.6875 -1.5625 1.6875 0 0 Z " fill="#D9DFE4" transform="translate(128,83)"/>
<path d="M0 0 C2.39223697 2.39223697 2.6758631 3.67759676 3 7 C2.01 8.485 2.01 8.485 1 10 C0.63883954 8.5225254 0.28624952 7.04295325 -0.0625 5.5625 C-0.25972656 4.73878906 -0.45695313 3.91507812 -0.66015625 3.06640625 C-0.82837891 2.04353516 -0.82837891 2.04353516 -1 1 C-0.67 0.67 -0.34 0.34 0 0 Z " fill="#F4961C" transform="translate(202,80)"/>
<path d="M0 0 C1.32 0.33 2.64 0.66 4 1 C5.25 4.0625 5.25 4.0625 6 7 C5.01 7.495 5.01 7.495 4 8 C2.68 5.36 1.36 2.72 0 0 Z " fill="#F8AC20" transform="translate(191,61)"/>
<path d="M0 0 C1.9375 0.25 1.9375 0.25 4 1 C4.66 1.99 5.32 2.98 6 4 C5.01 4.33 4.02 4.66 3 5 C1.68 3.68 0.36 2.36 -1 1 C-0.67 0.67 -0.34 0.34 0 0 Z " fill="#F3F0DE" transform="translate(185,25)"/>
<path d="M0 0 C1.32 0.66 2.64 1.32 4 2 C4 2.99 4 3.98 4 5 C2.35 4.67 0.7 4.34 -1 4 C-0.67 2.68 -0.34 1.36 0 0 Z " fill="#F2EEF2" transform="translate(57,210)"/>
<path d="M0 0 C3.3 0 6.6 0 10 0 C9 2 9 2 7.25 2.75 C4.35569775 3.07158914 2.59934027 2.22746624 0 1 C0 0.67 0 0.34 0 0 Z " fill="#AF0C77" transform="translate(99,206)"/>
<path d="M0 0 C0.66 0.66 1.32 1.32 2 2 C1.625 4.125 1.625 4.125 1 6 C-0.65 5.67 -2.3 5.34 -4 5 C-4 4.34 -4 3.68 -4 3 C-2.68 3 -1.36 3 0 3 C0 2.01 0 1.02 0 0 Z " fill="#E43A09" transform="translate(204,144)"/>
<path d="M0 0 C0.66 0.66 1.32 1.32 2 2 C1.96712417 4.72869407 1.43602229 7.2966618 1 10 C-0.80411967 7.24075815 -1.0127245 6.11027897 -0.625 2.75 C-0.41875 1.8425 -0.2125 0.935 0 0 Z " fill="#D3DAE0" transform="translate(97,132)"/>
<path d="M0 0 C0.66 1.32 1.32 2.64 2 4 C1.54625 4.433125 1.0925 4.86625 0.625 5.3125 C-1.20024334 7.10798342 -1.20024334 7.10798342 -3 10 C-2.39009109 6.44219804 -1.4216319 3.3171411 0 0 Z " fill="#DDE1E5" transform="translate(89,54)"/>
<path d="M0 0 C2 3 2 3 2 5 C-0.31 5 -2.62 5 -5 5 C-3.35 3.35 -1.7 1.7 0 0 Z " fill="#97A51F" transform="translate(174,19)"/>
</svg>
