<?xml version="1.0" encoding="UTF-8"?>
<svg version="1.1" xmlns="http://www.w3.org/2000/svg" width="48" height="48">
<path d="M0 0 C15.84 0 31.68 0 48 0 C48 15.84 48 31.68 48 48 C32.16 48 16.32 48 0 48 C0 32.16 0 16.32 0 0 Z " fill="#00EFEF" transform="translate(0,0)"/>
<path d="M0 0 C2.64 0 5.28 0 8 0 C8 13.2 8 26.4 8 40 C-7.84 40 -23.68 40 -40 40 C-40 37.36 -40 34.72 -40 32 C-26.8 32 -13.6 32 0 32 C0 21.44 0 10.88 0 0 Z " fill="#95919C" transform="translate(40,8)"/>
<path d="M0 0 C2.64 0 5.28 0 8 0 C8 2.64 8 5.28 8 8 C5.36 8 2.72 8 0 8 C0 5.36 0 2.72 0 0 Z " fill="#FFFFFF" transform="translate(40,0)"/>
<path d="M0 0 C3.3 0 6.6 0 10 0 C10 2.64 10 5.28 10 8 C11.32 8.33 12.64 8.66 14 9 C11.08517222 9.80967438 9.53886783 10.21845993 6.6875 9.0625 C6.130625 8.711875 5.57375 8.36125 5 8 C6.32 8 7.64 8 9 8 C9 5.69 9 3.38 9 1 C6.03 1 3.06 1 0 1 C0 0.67 0 0.34 0 0 Z " fill="#000000" transform="translate(22,8)"/>
</svg>
